<svg xmlns="http://www.w3.org/2000/svg" width="11.396" height="10.24" viewBox="0 0 11.396 10.24">
  <path id="attach" d="M0,3.032A3.366,3.366,0,0,0,.271,4.358,3.5,3.5,0,0,0,1.024,5.48l4.587,4.546L6.246,9.4,1.659,4.855A2.441,2.441,0,0,1,.9,3.032,2.049,2.049,0,0,1,3.01.923a2.581,2.581,0,0,1,1.843.768L9.9,6.7a1.881,1.881,0,0,1,.6,1.362,1.286,1.286,0,0,1-.379.957,1.315,1.315,0,0,1-.962.374,1.891,1.891,0,0,1-1.372-.6L3.932,4.978a1.564,1.564,0,0,1-.543-.993.4.4,0,0,1,.164-.338.631.631,0,0,1,.389-.123,1.188,1.188,0,0,1,.881.41L8.3,7.374l.625-.625L5.458,3.309a2.1,2.1,0,0,0-1.515-.676,1.5,1.5,0,0,0-1.024.379,1.225,1.225,0,0,0-.43.962A2.39,2.39,0,0,0,3.3,5.6l3.86,3.809a2.751,2.751,0,0,0,2.007.86,2.18,2.18,0,0,0,1.592-.63A2.126,2.126,0,0,0,11.4,8.06a2.728,2.728,0,0,0-.86-1.986L5.488,1.066A3.447,3.447,0,0,0,3.01.032,2.922,2.922,0,0,0,.865.892,2.9,2.9,0,0,0,0,3.032Z" transform="translate(0 -0.032)" fill="#505050"/>
</svg>
