<svg xmlns="http://www.w3.org/2000/svg" width="17.865" height="17.877" viewBox="0 0 17.865 17.877">
  <g id="cash-svgrepo-com" transform="translate(-1.452 -51.168)">
    <g id="Group_2322" data-name="Group 2322" transform="translate(1.452 51.168)">
      <path id="Path_2050" data-name="Path 2050" d="M152.773,75.361l-.494-.494a.64.64,0,0,0,0-.9.654.654,0,0,0-.9,0l-.494-.494.349-.349a.64.64,0,0,0,0-.9.654.654,0,0,0-.9,0l-.349.349-.494-.494.7-.7a.639.639,0,0,0-.9-.9l-.7.7-.494-.494.349-.349a.639.639,0,1,0-.9-.9l-.349.349-.494-.494.349-.349a1.337,1.337,0,0,1,2.265.727,1.338,1.338,0,0,1,1.7,1.7,1.337,1.337,0,0,1,1.048,1.747,1.337,1.337,0,0,1,.727,2.266Z" transform="translate(-136.203 -67.281)" fill="#4b4b4b"/>
      <path id="Path_2051" data-name="Path 2051" d="M66.708,219.194l-1,1-2.438,1.045-3.538,3.184.468.519,1.188-1.069c.142.072.283.145.426.209l.286-.637c-.051-.023-.1-.051-.153-.075l1.7-1.534,2.455-1.052,1.1-1.1Z" transform="translate(-55.525 -207.065)" fill="#4b4b4b"/>
      <path id="Path_2052" data-name="Path 2052" d="M56.582,51.168l-5.3,5.3L52.5,57.683l1.2-1.158,0,0a.737.737,0,0,1,1.134.93l-1.027,1.54,6.444,6.444,5.3-5.3Zm3.108,8.406a1.8,1.8,0,1,1,0-2.543A1.8,1.8,0,0,1,59.69,59.574Z" transform="translate(-47.687 -51.168)" fill="#4b4b4b"/>
      <path id="Path_2053" data-name="Path 2053" d="M122.508,124.535a2.133,2.133,0,0,1-1.519-.629h0a2.147,2.147,0,1,1,1.519.629Zm0-3.6a1.449,1.449,0,0,0-1.025,2.474h0a1.449,1.449,0,1,0,1.025-2.474Z" transform="translate(-111.777 -115.253)" fill="#4b4b4b"/>
      <path id="Path_2054" data-name="Path 2054" d="M7,116.912l.582.388,1.6-2.4a1.436,1.436,0,0,0-2.21-1.812l-2.1,2.1-.7,3.495-1.1,1.1c-.03-.061-.063-.121-.092-.182l-.635.293c.064.138.136.273.206.409l-1.1,1.1.494.494,2.87-2.87.7-3.495,1.953-1.953a.737.737,0,0,1,1.134.93Z" transform="translate(-1.452 -108.225)" fill="#4b4b4b"/>
    </g>
  </g>
</svg>
