<svg xmlns="http://www.w3.org/2000/svg" width="26.777" height="14.728" viewBox="0 0 26.777 14.728">
  <g id="check-payment-svgrepo-com" transform="translate(0 -115.2)">
    <g id="Group_2321" data-name="Group 2321" transform="translate(0 115.2)">
      <g id="Group_2320" data-name="Group 2320" transform="translate(0 0)">
        <path id="Path_2045" data-name="Path 2045" d="M58.193,165.118v2.015h-1.1a.669.669,0,0,0,0,1.339h1.1v.5a.669.669,0,1,0,1.339,0v-.547c1.3-.2,2.157-.99,2.157-2.057v-.427c0-1.067-.859-1.856-2.157-2.057v-2.015h1.1a.669.669,0,0,0,0-1.339h-1.1v-.5a.669.669,0,0,0-1.339,0v.55a2.27,2.27,0,0,0-2.157,2.092v.389C56.036,164.127,56.9,164.917,58.193,165.118Zm1.339.126c.463.112.818.345.818.693v.428c0,.348-.355.581-.818.693Zm-2.157-2.572c0-.359.36-.605.818-.724v1.806c-.463-.112-.818-.345-.818-.693Z" transform="translate(-53.105 -157.05)" fill="#4b4b4b"/>
        <path id="Path_2046" data-name="Path 2046" d="M26.108,115.2H.669a.669.669,0,0,0-.669.669v13.389a.669.669,0,0,0,.669.669H26.108a.669.669,0,0,0,.669-.669V115.869A.669.669,0,0,0,26.108,115.2Zm-.669,13.389H1.339v-12.05h24.1Z" transform="translate(0 -115.2)" fill="#4b4b4b"/>
        <path id="Path_2047" data-name="Path 2047" d="M206.109,191.419H213a.669.669,0,0,0,0-1.339h-6.9a.669.669,0,0,0,0,1.339Z" transform="translate(-194.696 -186.164)" fill="#4b4b4b"/>
        <path id="Path_2048" data-name="Path 2048" d="M206.109,242.619h11.514a.669.669,0,1,0,0-1.339H206.109a.669.669,0,0,0,0,1.339Z" transform="translate(-194.696 -234.686)" fill="#4b4b4b"/>
        <path id="Path_2049" data-name="Path 2049" d="M355.912,292.48h-3.883a.669.669,0,0,0,0,1.339h3.883a.669.669,0,1,0,0-1.339Z" transform="translate(-332.984 -283.208)" fill="#4b4b4b"/>
      </g>
    </g>
  </g>
</svg>
