<svg xmlns="http://www.w3.org/2000/svg" width="142.804" height="97.23" viewBox="0 0 142.804 97.23">
  <g id="Group_2291" data-name="Group 2291" transform="translate(-103.245 -230.592)">
    <path id="Path_218" data-name="Path 218" d="M149.056,345.791a18.343,18.343,0,0,1-3.778-.868,11.651,11.651,0,0,1-7.535-9.088c-.824-4.2-.13-8.307.946-12.36a36.811,36.811,0,0,1,4.868-11.019c2.345-3.525,5.044-6.741,8.849-8.84a22.911,22.911,0,0,1,6.941-2.347,2.407,2.407,0,0,0,.841-.335,8.443,8.443,0,0,1,4.257-1.4.791.791,0,0,0,.706-.486,8.341,8.341,0,0,0,.9-3.735c.022-.257-.153-.345-.324-.437a9.864,9.864,0,0,1-4.275-4.048c-.205-.387-.684-.465-1.057-.607a3.215,3.215,0,0,1-1.154-.606c-1.071-1.06-2.415-1.913-3.02-3.352a5.632,5.632,0,0,1-.035-3.989,4.861,4.861,0,0,1,1.406-2.608,2.652,2.652,0,0,1,1.251-.67c.388-.052.377-.223.358-.521-.31-5.022,2.159-8.465,6.384-10.721a16.3,16.3,0,0,1,12.951-1.014,9.315,9.315,0,0,1,2.665,1.41,1.875,1.875,0,0,1,.932,1.213c-.407.189-.72-.064-1.034-.243a13.806,13.806,0,0,0-3.38-1.6c-4.934-1.248-9.625-.793-13.745,2.384a9.675,9.675,0,0,0-3.892,7.062,2.971,2.971,0,0,0,.443,2.253.364.364,0,0,0,.253.156c.184-.615.307-1.254.471-1.88.117-.447.359-.713.847-.6,1.4.315,2.24-.451,2.926-1.512a4.231,4.231,0,0,1,.422-.666c.168-.178.35-.357.626-.252a.572.572,0,0,1,.372.569,1.977,1.977,0,0,0,.072.65,1.57,1.57,0,0,0,2.6.542,7.68,7.68,0,0,0,.836-1.1c.18-.27.385-.572.775-.514s.48.4.582.72a4.6,4.6,0,0,0,.552,1.4,1.357,1.357,0,0,0,2,.435c.731-.4,1.141-1.149,1.791-1.637.353-.264.633-.784,1.17-.495.493.265.3.759.253,1.189-.122,1.064.431,1.565,1.5,1.337a3.361,3.361,0,0,0,1.819-1.121c.16-.18.29-.387.463-.556.233-.228.459-.525.838-.4.359.123.443.461.482.8a13.956,13.956,0,0,0,.359,1.806,3.137,3.137,0,0,0,.749,1.444,1.6,1.6,0,0,1,.464,1.342,4.082,4.082,0,0,0,.913-1.611,8.32,8.32,0,0,0-.166-5.234,13.4,13.4,0,0,0-1.891-3.446c-.241-.365-.65-.688-.466-1.223.779.074,1.146.712,1.543,1.228a10.312,10.312,0,0,1,2.262,6.055,6.7,6.7,0,0,1-1.459,4.849,3.9,3.9,0,0,1,.964.211,2.508,2.508,0,0,1,1.5,2.641,8.995,8.995,0,0,1-1.908,5.01c-.465.616-.953,1.234-1.89,1.014a1.947,1.947,0,0,1-1.562-1.913,18.239,18.239,0,0,1-2.143,3.608,9.706,9.706,0,0,1-4.925,3.453c-.33.1-.414.225-.371.542.055.413.048.833.1,1.246a1.8,1.8,0,0,0,1.5,1.587,17.4,17.4,0,0,1,7.376,3.134,35.92,35.92,0,0,0,3.965,2.523,14.078,14.078,0,0,1,6.273,7.751,44.154,44.154,0,0,1,2.358,10.553A21.734,21.734,0,0,0,198.7,331.9a1.361,1.361,0,0,0,.425.528c1.024-2.288,1.943-4.6,2.811-6.945a82.534,82.534,0,0,0,3.213-11.441,2.77,2.77,0,0,1,2.686-2.412c2.765-.311,5.53-.615,8.308-.808,3.858-.268,7.719-.294,11.581-.2,3.511.083,7.008.4,10.5.8,1.2.139,1.536.891.855,1.958-1.309,2.051-2.644,4.084-3.763,6.251-1.823,3.527-3.286,7.21-4.792,10.875-1.565,3.809-3.109,7.626-5.02,11.28-.183.349-.359.7-.565,1.039-.309.5-.579.925-.087,1.543a1.86,1.86,0,0,1-.372,2.125c-.132.136-.281.257-.486.444,1.936.067,3.791.04,5.645,0q5.166-.122,10.332-.244c.24-.006.48-.034.72-.051,2.367-.069,4.733-.147,7.1-.2,1.349-.032,1.97.7,1.9,2.072s-.264,2.705-.255,4.069a1.589,1.589,0,0,1-1.636,1.626c-2.761.145-5.523.268-8.284.4-5.655.278-11.316.4-16.976.46-6.626.067-13.253-.006-19.879.035-6.518.04-13.037-.02-19.554.107-3,.058-6.012,0-9.015.072-3.926.1-7.851.242-11.778.231-6.23-.018-12.461-.049-18.69-.166-3.644-.068-7.283-.054-10.926.019-3.515.07-7.012-.332-10.521-.435-2.7-.08-5.394-.2-8.091-.305-1.074-.043-2.148-.1-3.222-.162-1.182-.069-1.732-.593-1.756-1.762a22.727,22.727,0,0,1,.263-4.46c.017-.1-.038-.292.164-.268.055.006.1.131.144.2.288.165.31.46.354.741a27.994,27.994,0,0,1,.261,3.28c.032.78.205.962.979,1.012,2.474.159,4.951.23,7.429.3,2.584.072,5.172.166,7.755.337,2.122.14,4.249.206,6.38.177,3.578-.049,7.161-.112,10.735.018,2.767.1,5.534-.03,8.293.118,3.841.206,7.682.129,11.521.087,3.291-.036,6.585-.018,9.873-.138,2.765-.1,5.529-.024,8.291-.11,5.987-.187,11.975-.082,17.963-.123,4.892-.033,9.786.1,14.676-.023,3.688-.094,7.377,0,11.059-.132,3.6-.129,7.2-.054,10.791-.246,3.767-.2,7.541-.221,11.3-.524.689-.055.836-.193.875-.883.067-1.2.148-2.408.177-3.615.012-.511-.175-.742-.673-.738a21.623,21.623,0,0,0-2.894.07,5.935,5.935,0,0,1-.919.053c-4.193-.055-8.38.2-12.569.3-4.017.1-8.03.046-12.045.066-2.458.012-4.913-.086-7.369-.13-4.475-.081-8.949-.233-13.426-.236a2.125,2.125,0,0,0-1.639.5,1.969,1.969,0,0,1-1.356.423,21.208,21.208,0,0,1-3.94-.207,81.159,81.159,0,0,0-9.7-.866c-2.7-.081-5.394-.157-8.088-.262-5.554-.218-11.106-.04-16.659-.1a28.382,28.382,0,0,0-3.352-.127,56.564,56.564,0,0,1-6.105.051,40.445,40.445,0,0,1-6.239-.038,16.776,16.776,0,0,0-2.494.119q-5.664-.029-11.329,0c-1.907.008-3.819-.071-5.719.031-1.845.1-3.686.073-5.528.091-1.733.017-3.461-.2-5.2-.13-.351.015-.7.05-1.052.055a.423.423,0,0,1-.4-.267c.224-.577.742-.6,1.24-.654,1.9-.189,3.8-.218,5.7-.269,2.542,0,5.084.032,7.624-.023,5.587-.12,11.175-.129,16.763-.123,1.332-.1,2.665-.024,4-.041,1.472-.019,2.943.021,4.406-.025C149.34,345.854,149.156,345.909,149.056,345.791Z" transform="translate(-3.639 -27.684)" fill="#4b43d0" fill-rule="evenodd"/>
    <path id="Path_219" data-name="Path 219" d="M110.911,481.254a5.281,5.281,0,0,1,2.089-.123c4.343.171,8.684.032,13.026.007,4.717-.027,9.435-.062,14.152-.08,2.737-.011,5.476.055,8.212-.008q3.75-.087,7.5-.021c5.839.092,11.679-.025,17.516.107,4.408.1,8.813.318,13.219.5,1.995.083,3.959.453,5.936.7a22.4,22.4,0,0,0,4,.213,1.506,1.506,0,0,0,1.482-.775c.112-.24.316-.192.508-.188,4.629.089,9.258.218,13.888.252,2.546.019,5.088.18,7.636.123,2.061-.045,4.124.047,6.186.055,4.869.02,9.732-.2,14.6-.352,2.633-.083,5.267-.119,7.9-.17.664-.013.832.166.8.808-.071,1.358-.163,2.717-.207,4.076-.018.531-.245.754-.752.778-2.85.131-5.7.307-8.551.394-5.4.165-10.793.317-16.19.405-4.849.079-9.7.073-14.551.09-6.76.023-13.52,0-20.279.057-7.389.06-14.778.141-22.166.293-6.454.132-12.9.022-19.356-.1-4.542-.084-9.084-.187-13.626-.075-3.384.084-6.748-.251-10.123-.361q-4.671-.152-9.343-.313c-.855-.031-1.709-.109-2.564-.146-.565-.025-.812-.277-.833-.859a20.683,20.683,0,0,0-.4-4.375q.006-.264.012-.527C110.524,481.371,110.8,481.371,110.911,481.254Z" transform="translate(-4.582 -161.689)" fill="#fefefe" fill-rule="evenodd"/>
    <path id="Path_220" data-name="Path 220" d="M105.6,248.835c0-.154-.015-.313.16-.4a22.3,22.3,0,0,1,2.226-.265c1.722-.2,3.458-.185,5.183-.324,3.322-.269,6.666-.1,9.983-.5a5.945,5.945,0,0,1,.855-.023c2.521.064,5.042-.009,7.563,0,1.075,0,2.143.225,3.219.129,3.093-.276,6.172.234,9.263.153a8.723,8.723,0,0,1,3.073.673,1.5,1.5,0,0,1,.927,1.332,3.988,3.988,0,0,1,.006,1.248c-.454,3.278-.693,6.582-1.2,9.857-.23,1.486-.409,3-.493,4.51a5.753,5.753,0,0,1-.463,1.977,1.491,1.491,0,0,1-1.175.932,19.021,19.021,0,0,1-3.349.144,12.7,12.7,0,0,0-2.427.14.92.92,0,0,0-.832.86,12.876,12.876,0,0,0-.177,1.766c.01,1.778,0,3.556,0,5.334a5.636,5.636,0,0,1-.016.658c-.022.193-.013.428-.223.515s-.368-.088-.514-.213c-.52-.444-.9-1.013-1.382-1.5-1.1-1.125-2.125-2.328-3.228-3.456a5,5,0,0,0-3.488-1.466,25.307,25.307,0,0,0-3.218.175c-2.321.175-4.652.111-6.966.256-3.414.215-6.84.087-10.246.452a7.359,7.359,0,0,1-2.489-.118,1.445,1.445,0,0,1-1.276-1.378,4.28,4.28,0,0,1-.028-.789q.186-4.764.368-9.527c.132-3.549.415-7.1.29-10.652C105.525,249.167,105.467,248.987,105.6,248.835Z" transform="translate(-1.011 -16.137)" fill="#fefefe" fill-rule="evenodd"/>
    <path id="Path_221" data-name="Path 221" d="M104.591,247.851a5.922,5.922,0,0,1,.139.909c0,2.5-.011,5-.175,7.5-.127,1.948-.173,3.9-.255,5.853-.086,2.059-.213,4.117-.245,6.178-.033,2.122.267,2.4,2.3,2.311,3.241-.144,6.49-.087,9.726-.394,1.545-.147,3.112-.073,4.67-.1,2-.033,3.988-.171,5.977-.354a5.982,5.982,0,0,1,4.174.817,14.4,14.4,0,0,1,2.642,2.632c.971,1.168,2.105,2.173,3.227,3.316,0-1.164.009-2.329,0-3.493a25.783,25.783,0,0,1,.206-5.185.552.552,0,0,1,.48-.5,13.22,13.22,0,0,1,3.86-.224,18.039,18.039,0,0,0,2.622-.2.883.883,0,0,0,.7-.573,9.753,9.753,0,0,0,.643-3.4c.349-2.562.546-5.141,1.006-7.692.232-1.288.217-2.62.333-3.93a13.091,13.091,0,0,0,.269-2.281c-.085-1-.238-1.491-1.3-1.734a12.311,12.311,0,0,0-3.166-.511c-1.846.063-3.682-.14-5.522-.207-1.508-.055-3.025.14-4.538.038-3.115-.21-6.23,0-9.346-.045-1.751-.023-3.5.236-5.258.258-2.961.036-5.911.3-8.87.373-.635.016-1.268.091-1.9.139a7.875,7.875,0,0,1-1.337.039c-.147.005-.317.014-.295-.221a28.582,28.582,0,0,1,3.949-.612c3.754-.417,7.53-.361,11.292-.578,1.354-.078,2.71-.114,4.062-.223a25.245,25.245,0,0,0,2.891.026c2.26-.161,4.518.189,6.776.073,3.1-.159,6.174.177,9.26.278a9.437,9.437,0,0,1,3.191.726c.708.284.8,1.09.882,1.774a15.2,15.2,0,0,1-.263,2.873c-.276,4-1.1,7.939-1.383,11.936a9.889,9.889,0,0,1-.829,3.614.905.905,0,0,1-.711.563,20.458,20.458,0,0,1-4.587.267c-2.454,0-2.368-.053-2.346,2.3.026,2.741-.047,5.482.114,8.4-.727-.7-1.385-1.284-1.988-1.921-1.611-1.7-3.156-3.469-4.814-5.124a4.368,4.368,0,0,0-3.688-1c-2.141.206-4.286.314-6.434.382-2.868.092-5.734.208-8.6.315a19.917,19.917,0,0,0-3.806.126,10.175,10.175,0,0,1-3.456-.151,1.811,1.811,0,0,1-1.571-1.825,22.206,22.206,0,0,1-.03-2.3c.175-4.094.315-8.192.579-12.28.142-2.205.158-4.424.483-6.617C104.352,248.023,104.326,247.834,104.591,247.851Z" transform="translate(0 -15.153)" fill="#4b43d0" fill-rule="evenodd"/>
    <path id="Path_222" data-name="Path 222" d="M107.84,249.536c.511.354,1.1.03,1.632.182a8.643,8.643,0,0,1-2.234.1C107.391,249.62,107.649,249.65,107.84,249.536Z" transform="translate(-2.487 -17.515)" fill="#6e83b9" fill-rule="evenodd"/>
    <path id="Path_223" data-name="Path 223" d="M110.742,481.4l-.287.391c-.294-.193.03-.369.015-.555Z" transform="translate(-4.413 -161.833)" fill="#7589bd" fill-rule="evenodd"/>
    <path id="Path_224" data-name="Path 224" d="M352.784,297.268c.012-.164.118-.223.264-.239,1.29-.032,2.583-.058,3.869-.071,1.326-.014,2.664-.045,4,.048,1,.07,2-.167,3.015-.114,1.971.1,3.946.011,5.921.076,1.2.039,2.406.072,3.609.091,3.09.049,6.181.134,9.257.479a14.221,14.221,0,0,1,1.9.158,1.823,1.823,0,0,1,1.608,1.725c.313,1.821.256,3.672.478,5.5a32.322,32.322,0,0,1,.216,5.181c-.046,1.173-.025,2.36-.074,3.54a4.658,4.658,0,0,1-.12.976A1.7,1.7,0,0,1,385.036,316c-2.1.18-4.2.333-6.3.378-1.332.028-2.667-.029-4,.021a22.12,22.12,0,0,0-3.672.229,4.024,4.024,0,0,1-1.443-.02,4.457,4.457,0,0,0-1.181-.042,1,1,0,0,0-.994.877,16.682,16.682,0,0,0-.4,2.532c-.015.41-.064.974-.474,1.08s-.6-.436-.8-.762c-.525-.887-.942-1.835-1.5-2.7a3.825,3.825,0,0,0-2.33-1.691,11.728,11.728,0,0,0-4.51-.083,13.884,13.884,0,0,1-2.826.029c-1.024-.085-1.277-.381-1.37-1.405a36.828,36.828,0,0,1-.178-5.248c.075-1.455.042-2.929.053-4.395.008-.939.112-1.869.066-2.82C353.1,300.4,352.951,298.835,352.784,297.268Z" transform="translate(-155.431 -47.007)" fill="#fefefe" fill-rule="evenodd"/>
    <path id="Path_225" data-name="Path 225" d="M352.263,296.369a6.7,6.7,0,0,1,.506,2.368,50.77,50.77,0,0,1-.047,7.1,5.612,5.612,0,0,0,.018,1.375,10.273,10.273,0,0,1-.063,2.229,32.729,32.729,0,0,0,.243,4.4c.053.676.533.945,1.46.95,1.517.009,3.025-.119,4.533-.253a7.736,7.736,0,0,1,3.17.432,3.226,3.226,0,0,1,1.737,1.438c.624,1.082,1.228,2.174,1.846,3.26.1.167.214.32.366.545a4.2,4.2,0,0,0,.334-1.51,10.858,10.858,0,0,1,.444-2.586.966.966,0,0,1,1.159-.666c2.115.292,4.2-.2,6.3-.18a94.335,94.335,0,0,0,10.245-.36,1.653,1.653,0,0,0,1.618-1.738,70.318,70.318,0,0,0-.351-11.5c-.135-1.084-.091-2.187-.3-3.272a1.512,1.512,0,0,0-1.321-1.39c-.845-.121-1.7-.18-2.551-.251-4.047-.337-8.1-.409-12.161-.476-2.26-.037-4.52-.127-6.779-.1-1.24.013-2.484.168-3.726.086-2.139-.141-4.289.3-6.42-.139a15.732,15.732,0,0,1,4.157-.528c1.285-.057,2.6.013,3.866-.091,2.2-.18,4.38.055,6.57-.029,2.385-.091,4.78.071,7.172.125,3.159.072,6.311.238,9.456.576a3.5,3.5,0,0,1,2.2.995,1.185,1.185,0,0,1,.3.838c.33,3.866.743,7.725.716,11.617-.009,1.228-.018,2.456-.058,3.683a3.854,3.854,0,0,1-.741,1.939c-.283.431-.964.38-1.465.41-2.733.163-5.457.419-8.209.352a28.57,28.57,0,0,0-5.251.214,13.1,13.1,0,0,1-2.887,0c-.478-.029-.759.081-.87.627a58.278,58.278,0,0,0-.842,5.842c-.01.1-.022.207-.036.34a1.066,1.066,0,0,1-.4-.6c-.821-1.8-1.938-3.432-2.847-5.181a3.49,3.49,0,0,0-2.912-1.84,17.858,17.858,0,0,0-3.281.077,11.922,11.922,0,0,1-3.792-.088A1.459,1.459,0,0,1,352.1,313.8c-.1-1.9-.166-3.8-.148-5.707.034-3.483.313-6.964.175-10.45A2.007,2.007,0,0,1,352.263,296.369Z" transform="translate(-154.91 -46.108)" fill="#4b43d0" fill-rule="evenodd"/>
    <path id="Path_226" data-name="Path 226" d="M286.733,250.246c.006.131.018.262.016.393-.006.267.123.66-.255.7-.33.035-.441-.371-.468-.621a30.035,30.035,0,0,1-.342-4.1c.006-.206-.013-.5.27-.522.328-.028.352.279.379.509.149,1.213.285,2.427.426,3.641Z" transform="translate(-113.633 -15.369)" fill="#1db6c6" fill-rule="evenodd"/>
    <path id="Path_227" data-name="Path 227" d="M294.768,253.678a8.273,8.273,0,0,1,1.042-2.308,3.87,3.87,0,0,1,1.131-1.336c.166-.1.344-.266.527-.1s.066.375-.065.523a10.942,10.942,0,0,0-1.954,3.522c-.067.18-.176.418-.4.367C294.765,254.284,294.812,253.983,294.768,253.678Z" transform="translate(-119.295 -17.72)" fill="#1eb6c5" fill-rule="evenodd"/>
    <path id="Path_228" data-name="Path 228" d="M306.343,258.74c.293.021.5.046.546.291.035.207-.109.322-.288.379a8.864,8.864,0,0,0-2,1.224c-.172.109-.335.233-.528.064a.36.36,0,0,1-.007-.534A5.175,5.175,0,0,1,306.343,258.74Z" transform="translate(-125.015 -23.248)" fill="#20b6c3" fill-rule="evenodd"/>
    <path id="Path_229" data-name="Path 229" d="M201.805,477.8l.943.144-.01.081h-8.963a1.21,1.21,0,0,1,.767-.1c2.194,0,4.389,0,6.583,0C201.353,477.925,201.613,478.026,201.805,477.8Z" transform="translate(-56.389 -159.696)" fill="#969c49" fill-rule="evenodd"/>
    <path id="Path_230" data-name="Path 230" d="M216.552,374.667a17.581,17.581,0,0,0,2.433,2.894.677.677,0,0,1,.19.744c-.46,2.085-1.462,3.975-2.118,5.991a39.191,39.191,0,0,0-2.1,11.26,5.967,5.967,0,0,0,.193,1.909l-2.735-.408c-3.254-.483-6.491-1.049-9.689-1.83-3.025-.739-4.214-2.416-4.088-5.86a31.3,31.3,0,0,1,.784-4.931,1.674,1.674,0,0,0-.06-1.1,6.494,6.494,0,0,0-1.079,2.81,13.416,13.416,0,0,0-.262,5.67,5,5,0,0,0,3.625,3.949,55.859,55.859,0,0,0,7.329,1.532c2.937.505,5.876,1.038,8.853,1.249,2.6.184,5.217.257,7.826.375,2.082.093,4.165.179,6.248.272a2.2,2.2,0,0,1,.308.055,12.571,12.571,0,0,0-.775,7.085c.086.5-.092.479-.444.465-4.451-.163-8.9-.374-13.354-.454-2.234-.04-4.472.112-6.708-.006q-3.032-.161-6.063-.342a69,69,0,0,1-9.448-1.244,11.108,11.108,0,0,1-8.829-8.778,22.062,22.062,0,0,1-.089-7.4,38.208,38.208,0,0,1,3.66-11.884,28.646,28.646,0,0,1,9.963-11.838,18.83,18.83,0,0,1,5.941-2.407c.169-.04.391-.135.5.012.134.182-.092.313-.2.427a7.335,7.335,0,0,0-1.937,4.5,3.557,3.557,0,0,0-.017.788c.074.714.347.965,1.067.961a22.582,22.582,0,0,0,4.364-.568c.52-.105.64-.036.594.49a34.366,34.366,0,0,0,.172,6.24c.025.262.053.525.1.783a1.433,1.433,0,0,0,2.06,1.149A12.416,12.416,0,0,0,216.552,374.667Z" transform="translate(-51.688 -87.796)" fill="#fefefe" fill-rule="evenodd"/>
    <path id="Path_231" data-name="Path 231" d="M345.49,418.437c.837-1.317.689-1.736-.792-2.455.215-.109.411-.2.6-.306a1.152,1.152,0,0,0,.076-2.076,3.448,3.448,0,0,0-1.4-.557c-.367-.055-.489-.126-.283-.525a87.721,87.721,0,0,0,4.369-9.7c.976-2.629,1.863-5.284,2.578-8,.5-1.886.965-3.774,1.352-5.685a1.693,1.693,0,0,1,1.663-1.51,125.678,125.678,0,0,1,13.509-1.059c3.8-.06,7.595.042,11.385.285,1.882.121,3.759.33,5.636.512.6.058.68.242.325.753a76.421,76.421,0,0,0-7.682,14.858c-1.8,4.4-3.569,8.813-5.7,13.068-.344.686-.707,1.361-1.063,2.041a.57.57,0,0,1-.6.37c-6.232-.225-12.464-.058-18.7-.015C349.033,418.447,347.3,418.437,345.49,418.437Z" transform="translate(-149.706 -102.854)" fill="#fefefe" fill-rule="evenodd"/>
    <path id="Path_232" data-name="Path 232" d="M296.289,402.181c-4.163.02-8.229-.319-12.421-.431,1.169-1.452.437-2.907.117-4.312a68.163,68.163,0,0,1-1.189-9.119,17.264,17.264,0,0,0-1.591-6.332c-.074-.147-.216-.292-.071-.48.727-.94,1.081-2.089,1.725-3.081.295-.454.454-.612.954-.232a5.291,5.291,0,0,0,2.776,1.1,1.692,1.692,0,0,0,1.944-2.305c-.41-1.545-.795-3.1-1.271-4.624-.189-.606.038-.772.527-.925a11.387,11.387,0,0,0,2.624-1.02c.863-.53,1.736-1.057,1.9-2.209a13.282,13.282,0,0,1,7.121,7.429,38.087,38.087,0,0,1,2.5,10.109,24.969,24.969,0,0,0,2.9,9.763,2.044,2.044,0,0,0,.264.453c.849.842.6,1.677.073,2.575-.476.811-.859,1.675-1.292,2.511-.085.166-.11.392-.365.42a50.32,50.32,0,0,1-5.937.691.526.526,0,0,1-.5-.231,20.761,20.761,0,0,1-3.292-7.39,26.436,26.436,0,0,1-.683-6.389c.006-.193.048-.4-.138-.548a.415.415,0,0,0-.436-.063c-.22.1-.2.323-.209.516a22.935,22.935,0,0,0,.253,4.131,21.591,21.591,0,0,0,2.494,7.969C295.419,400.807,295.83,401.427,296.289,402.181Z" transform="translate(-110.763 -91.433)" fill="#fefefe" fill-rule="evenodd"/>
    <path id="Path_233" data-name="Path 233" d="M251.787,293.17c1.154,1.624,2.942,2.306,4.875-.128.515,1.118,1.047,2.26,2.475,2.314,1.327.051,2.073-1,2.951-1.8.537,2.072,2.521,2.637,4.317,1.269.346-.264.659-.571,1.083-.942a7.43,7.43,0,0,0,.918,2.826c.242.419.548.764.431,1.305s-.158,1.128-.259,1.687a19.9,19.9,0,0,1-3.236,8.316,9.3,9.3,0,0,1-7.953,4.112,10.213,10.213,0,0,1-5.279-1.062,10.664,10.664,0,0,1-3.453-3.048,27.3,27.3,0,0,0,3.643.6,13.416,13.416,0,0,0,1.9-.1.452.452,0,0,1,.479.2,3.455,3.455,0,0,0,3.388,1.047,2,2,0,0,0,1.57-2.129,2.3,2.3,0,0,0-1.968-1.848,4.143,4.143,0,0,0-2.355.443c-.25.124-.489.295-.526.553-.091.64-.457.619-.948.514-1.2-.257-2.442-.167-3.643-.449-.687-.161-1.305-.5-1.977-.685-.447-.126-.492-.519-.568-.879a15.338,15.338,0,0,1-.2-3.41,34.883,34.883,0,0,1,.832-6.64c.032-.156-.04-.39.249-.358A3.516,3.516,0,0,0,251.787,293.17Z" transform="translate(-89.814 -44.613)" fill="#fefefe" fill-rule="evenodd"/>
    <path id="Path_234" data-name="Path 234" d="M266,270.723a6.183,6.183,0,0,0,1.208,2.009,9.711,9.711,0,0,1,1.771,6.716,4.427,4.427,0,0,1-1.525,3.169,1.855,1.855,0,0,0-.585-1.762,5.744,5.744,0,0,1-.974-2.959c-.024-.152-.028-.307-.05-.459-.029-.2-.083-.4-.3-.474-.231-.081-.355.091-.5.231a8.328,8.328,0,0,1-1.743,1.589,2.4,2.4,0,0,1-1.768.293.916.916,0,0,1-.821-1.129c.045-.3.09-.606.139-.908.037-.228.039-.437-.2-.568-.219-.118-.382,0-.539.119a16.2,16.2,0,0,0-1.678,1.575c-1.335,1.337-2.684,1-3.25-.811-.091-.291-.186-.582-.265-.877-.047-.175-.091-.343-.29-.4-.237-.068-.377.085-.491.247a9.438,9.438,0,0,1-1.019,1.367,1.7,1.7,0,0,1-2.968-1.261c.007-.237-.014-.461-.27-.536s-.394.135-.5.329a4.336,4.336,0,0,1-1.908,2.1,1.749,1.749,0,0,1-1.4.111c-.517-.2-.715-.006-.811.494-.145.752-.34,1.494-.511,2.228-.881-.681-1.177-1.5-.952-3.029.7-4.718,3.517-7.671,7.912-9.157a16.131,16.131,0,0,1,10.772.011,17.3,17.3,0,0,1,2.433,1.291,4.689,4.689,0,0,0,1.085.453Z" transform="translate(-87.5 -29.046)" fill="#fefefe" fill-rule="evenodd"/>
    <path id="Path_235" data-name="Path 235" d="M268.762,352.939a6.176,6.176,0,0,1-2.83,5.577.728.728,0,0,1-.779.151,9.282,9.282,0,0,1-5.058-3.97,17.106,17.106,0,0,1-1.6-5.584c-.03-.175.091-.284.182-.4a6.749,6.749,0,0,0,1.2-3.758c.036-.529.161-.578.645-.442a13.215,13.215,0,0,0,5.278.3c.488-.062.661.027.658.535a4.051,4.051,0,0,0,1.22,3,5.411,5.411,0,0,1,.921,2.494A7.683,7.683,0,0,1,268.762,352.939Z" transform="translate(-96.696 -76.631)" fill="#fefefe" fill-rule="evenodd"/>
    <path id="Path_236" data-name="Path 236" d="M312.33,459.14a29.235,29.235,0,0,0,7.059-.587,4.576,4.576,0,0,1,3.074.4c.2.1.4.212.379.48-.016.24-.221.318-.395.395a6.189,6.189,0,0,1-2.038.479,5.679,5.679,0,0,0-.589.065c-.26.047-.558.086-.521.457.032.327.321.345.552.343a7.5,7.5,0,0,1,1.753.218,4.949,4.949,0,0,1,.687.216c.242.095.559.181.559.485,0,.362-.336.486-.63.581a4.858,4.858,0,0,1-2.153.083c-.285-.037-.613-.118-.736.233-.135.385.224.459.466.591a5.973,5.973,0,0,1,1.88,1.3c.155.186.336.39.2.646s-.417.21-.653.178a6.812,6.812,0,0,1-2.29-.777c-.264-.14-.569-.294-.765,0-.232.346.076.544.344.72a5.194,5.194,0,0,1,1.257,1.151c.414.53.349.7-.3.8a18.211,18.211,0,0,1-4.783-.22c-2.09-.249-4.171-.592-6.277-.677-.544-.022-.523-.381-.569-.692a13.417,13.417,0,0,1,.517-6.094c.213-.668.462-.856,1.146-.794C310.44,459.2,311.388,459.14,312.33,459.14Z" transform="translate(-127.349 -147.64)" fill="#fefefe" fill-rule="evenodd"/>
    <path id="Path_237" data-name="Path 237" d="M242.585,367.143c0-.657-.005-1.314,0-1.971.008-.731-.194-.9-.909-.743a35.271,35.271,0,0,1-4.415.662c-.577.052-.718-.159-.68-.686a7.823,7.823,0,0,1,2.333-4.931,8.067,8.067,0,0,1,4.354-2.259c.483-.1.862-.1.933.6a15.308,15.308,0,0,0,.9,3.683,8.753,8.753,0,0,0,4.735,5.192c.97.445.984.474.245,1.277a29.4,29.4,0,0,1-3.995,3.979,10.551,10.551,0,0,1-2.272,1.3c-.6.247-.851.106-.964-.544A21.763,21.763,0,0,1,242.585,367.143Z" transform="translate(-83.049 -84.554)" fill="#fefefe" fill-rule="evenodd"/>
    <path id="Path_238" data-name="Path 238" d="M279.05,366.349a6.948,6.948,0,0,0,3.253-4.727,10.4,10.4,0,0,0-.525-5.313c-.185-.487-.076-.573.393-.479a16.833,16.833,0,0,1,4.924,1.927,13.9,13.9,0,0,1,2.2,1.415c1.248,1.048,1.224,1.6-.082,2.544a8.038,8.038,0,0,1-2.375,1.09c-.313.1-.633.181-.934.309a1.08,1.08,0,0,0-.717,1.518c.432,1.628.869,3.255,1.281,4.888.217.861-.066,1.2-.938,1.206a4.525,4.525,0,0,1-2.653-1c-1.177-.821-2.084-1.941-3.186-2.844C279.5,366.716,279.3,366.551,279.05,366.349Z" transform="translate(-109.504 -83.701)" fill="#fefefe" fill-rule="evenodd"/>
    <path id="Path_239" data-name="Path 239" d="M345.827,475.422c.839-.617.847-1.128.031-2.3.124-.193.316-.083.467-.083,4.323-.022,8.648.02,12.97-.068,3.664-.074,7.324-.085,10.986.032.616.02,1.152.145,1.369.786a1.381,1.381,0,0,1-.828,1.553,2.986,2.986,0,0,1-1.393.329q-3.975.09-7.952.052c-4.145-.038-8.289-.036-12.434-.054-.768,0-1.536-.02-2.3-.031C346.458,475.464,346.06,475.8,345.827,475.422Z" transform="translate(-151.098 -156.65)" fill="#fefefe" fill-rule="evenodd"/>
    <path id="Path_241" data-name="Path 241" d="M343.762,479.566c.257.271.65-.04.911.214h-2.162C342.924,479.655,343.356,479.7,343.762,479.566Z" transform="translate(-149.032 -160.794)" fill="#b9c3dd" fill-rule="evenodd"/>
    <path id="Path_242" data-name="Path 242" d="M122.184,276.976a11.688,11.688,0,0,1-1.637-.091c-2.587-.4-3.494-2.149-3.466-4.554,0-.175.035-.349.051-.524.072-.757-.054-1.642.6-2.151a4.621,4.621,0,0,1,3.412-1.375,7.7,7.7,0,0,1,1.873.309c.52.2.648-.032.72-.462a3.432,3.432,0,0,1,.19-.763.4.4,0,0,1,.5-.219c.246.069.291.243.2.462-.373.921-.208,1.457.793,1.989a3.856,3.856,0,0,1,1.662,4.417,4.129,4.129,0,0,1-3.847,2.959C122.887,276.994,122.535,276.976,122.184,276.976Z" transform="translate(-8.617 -28.471)" fill="#1bb5c8" fill-rule="evenodd"/>
    <path id="Path_243" data-name="Path 243" d="M163.23,263.035a69.8,69.8,0,0,0,10.317-.114,4.4,4.4,0,0,1,.976.1c.165.023.388.036.368.276-.017.206-.206.262-.39.279-.914.083-1.828.167-2.743.247-3.149.276-6.3.051-9.451.046-1.643,0-3.287-.03-4.93-.059-.334-.006-.85.036-.849-.371s.526-.391.859-.394C159.512,263.027,161.638,263.035,163.23,263.035Z" transform="translate(-33.188 -25.848)" fill="#1bb5c8" fill-rule="evenodd"/>
    <path id="Path_244" data-name="Path 244" d="M167.1,275.066c-3.109.123-6.218.241-9.327.374a4.442,4.442,0,0,1-1.037-.126c-.177-.033-.359-.082-.343-.316.013-.2.181-.232.334-.248.3-.031.609-.057.914-.069q6.572-.258,13.144-.509c.547-.021,1.1-.006,1.644.026.177.01.439.029.45.289.01.235-.2.33-.4.381a8.466,8.466,0,0,1-1.9.128c-1.161.036-2.324.01-3.486.01Z" transform="translate(-33.103 -32.854)" fill="#1bb5c8" fill-rule="evenodd"/>
    <path id="Path_245" data-name="Path 245" d="M160.637,286.575a13.933,13.933,0,0,1,3.55-.193c.251.02.652-.06.611.394-.035.381-.352.368-.652.377-1.9.054-3.807.121-5.711.177a8.468,8.468,0,0,1-1.182-.019c-.253-.028-.551-.123-.528-.47.025-.379.341-.261.56-.262C158.4,286.572,159.52,286.575,160.637,286.575Z" transform="translate(-33.311 -40.44)" fill="#1bb5c8" fill-rule="evenodd"/>
    <path id="Path_246" data-name="Path 246" d="M408.8,335.651c-.169.348-.455.313-.707.35a32.014,32.014,0,0,1-3.682.141q-5.23.164-10.464.111a5.507,5.507,0,0,1-2.084-.335,8.454,8.454,0,0,1,2.919-.443c3.225-.037,6.452,0,9.677-.067,1.12-.022,2.234.019,3.35.06A2.3,2.3,0,0,1,408.8,335.651Z" transform="translate(-179.77 -70.998)" fill="#1eb6c5" fill-rule="evenodd"/>
    <path id="Path_247" data-name="Path 247" d="M377.106,308.577a.905.905,0,0,1-.8.3c-3.6.043-7.171.524-10.766.523a16.327,16.327,0,0,1-4.118-.356,1.781,1.781,0,0,1-.961-.5c1.129,0,2.145-.068,3.149.014a52.6,52.6,0,0,0,5.842-.1c2.361-.069,4.72-.448,7.087-.083C376.729,308.4,376.936,308.381,377.106,308.577Z" transform="translate(-160.211 -54.064)" fill="#1eb6c5" fill-rule="evenodd"/>
    <path id="Path_248" data-name="Path 248" d="M407.2,328.584a4.93,4.93,0,0,1,2.04-.425c2.346-.045,4.68.143,7.018.295a11.566,11.566,0,0,0,1.44-.049c.149-.009.331-.112.379.1.035.161-.106.27-.246.352a2.557,2.557,0,0,1-1.512.358c-2.665-.233-5.334-.278-8.006-.283A1.61,1.61,0,0,1,407.2,328.584Z" transform="translate(-189.326 -66.482)" fill="#1eb6c5" fill-rule="evenodd"/>
    <path id="Path_249" data-name="Path 249" d="M365.731,317.4c1.2.126,2.4-.071,3.6.12.193.031.385.072.576.119.079.02.18.04.184.152a.231.231,0,0,1-.176.244,3.919,3.919,0,0,1-.771.135q-3.409.085-6.819.142c-.262,0-.669.081-.712-.254-.035-.271.361-.329.6-.394A25.813,25.813,0,0,1,365.731,317.4Z" transform="translate(-160.926 -59.785)" fill="#1eb6c5" fill-rule="evenodd"/>
    <path id="Path_250" data-name="Path 250" d="M230.895,413.57a70.132,70.132,0,0,1,7.738.543c.792.108,1.007.4.929,1.2-.161,1.679-.338,3.357-.521,5.034a1.065,1.065,0,0,1-1.141,1.038,52.156,52.156,0,0,1-7.357-.282c-1-.106-2-.236-3-.337a1.274,1.274,0,0,1-1.274-1.38,22.429,22.429,0,0,1,.91-5.159.893.893,0,0,1,1.025-.718C229.143,413.578,230.088,413.446,230.895,413.57Z" transform="translate(-76.626 -119.647)" fill="#4b43d0" fill-rule="evenodd"/>
    <path id="Path_251" data-name="Path 251" d="M386.228,425.4a6,6,0,0,1,.739-2.916,2.21,2.21,0,0,1,1.55-1.213,5.774,5.774,0,0,1,1.789-.35,2.832,2.832,0,0,1,2.411,2.052,3.391,3.391,0,0,1-.74,3.427,4.081,4.081,0,0,1-4.694.936A1.894,1.894,0,0,1,386.228,425.4Z" transform="translate(-176.259 -124.257)" fill="#4b43d0" fill-rule="evenodd"/>
    <path id="Path_254" data-name="Path 254" d="M272.962,311.838c-.391-.024-.785-.022-1.171-.081-.232-.035-.482-.148-.448-.462s.3-.25.5-.248c1.451.016,1.45.017,1.59-1.429.1-1.084.207-2.168.317-3.252.039-.38.139-.71.647-.54.337.183.311.516.295.81-.082,1.462-.249,2.918-.453,4.367C274.157,311.613,273.882,311.753,272.962,311.838Z" transform="translate(-104.702 -52.548)" fill="#4b43d0" fill-rule="evenodd"/>
    <path id="Path_255" data-name="Path 255" d="M265,304.771a4.141,4.141,0,0,1-.258,1.541.728.728,0,0,1-.969.545c-.5-.118-.608-.448-.454-.9a12.1,12.1,0,0,0,.183-1.822c.1-.55.376-.744.838-.661.408.073.823.25.683.834A2.873,2.873,0,0,0,265,304.771Z" transform="translate(-99.664 -51.1)" fill="#4b43d0" fill-rule="evenodd"/>
    <path id="Path_256" data-name="Path 256" d="M288.971,306.342c-.069.393-.134,1-.292,1.586a.712.712,0,0,1-.944.561c-.485-.13-.67-.37-.5-.912s.078-1.158.245-1.736a.6.6,0,0,1,.822-.487C288.7,305.442,289.057,305.611,288.971,306.342Z" transform="translate(-114.564 -52.264)" fill="#4b43d0" fill-rule="evenodd"/>
    <path id="Path_258" data-name="Path 258" d="M259.63,300.51a1,1,0,0,1,.757-.675,3.912,3.912,0,0,1,2.87.115c.11.058.262.129.227.28a.246.246,0,0,1-.324.149,6.171,6.171,0,0,0-3.223.164A1.022,1.022,0,0,1,259.63,300.51Z" transform="translate(-97.408 -48.71)" fill="#4b43d0" fill-rule="evenodd"/>
    <path id="Path_259" data-name="Path 259" d="M287.118,301.724a3.1,3.1,0,0,0-1.238.2c-.161.058-.375.141-.479-.025-.117-.188.093-.308.219-.417a3.129,3.129,0,0,1,3.14.135c.073.077.182.148.134.272-.063.161-.215.129-.333.1A3.558,3.558,0,0,0,287.118,301.724Z" transform="translate(-113.439 -49.645)" fill="#4b43d0" fill-rule="evenodd"/>
    <path id="Path_260" data-name="Path 260" d="M123.275,278.1a1.642,1.642,0,0,0,.806-.979c.407-1.27.852-2.527,1.252-3.8.106-.336.188-.39.535-.252a3.34,3.34,0,0,1,1.949,3.216,3.279,3.279,0,0,1-2.353,2.876,7.9,7.9,0,0,1-4.339-.207,2.654,2.654,0,0,1-1.82-2.355,10.619,10.619,0,0,1,.118-3.139c.126-.79.786-.882,1.335-1.06a5.558,5.558,0,0,1,3.6.125c.149.051.393.046.28.324a34.331,34.331,0,0,1-1.267,3.716c-.01.018-.033.028-.061.051a20.856,20.856,0,0,1-1.4-1.972c-.177-.244-.343-.485-.685-.277-.389.235-.141.5.009.717.524.755,1.073,1.492,1.61,2.238A1.608,1.608,0,0,1,123.275,278.1Z" transform="translate(-9.959 -31.605)" fill="#fefefe" fill-rule="evenodd"/>
    <path id="Path_261" data-name="Path 261" d="M236.168,421.846c-2.248-.12-4.714-.351-7.177-.621a.639.639,0,0,1-.654-.792,17.165,17.165,0,0,1,.755-4.515c.117-.3.236-.423.546-.413,2.275.069,4.551.115,6.821.3,1.047.084,2.093.194,3.141.244.422.02.517.164.471.556q-.277,2.383-.508,4.772c-.035.37-.182.486-.538.479C238.149,421.834,237.271,421.846,236.168,421.846Z" transform="translate(-77.912 -120.892)" fill="#fefefe" fill-rule="evenodd"/>
  </g>
</svg>
