<svg xmlns="http://www.w3.org/2000/svg" width="19.917" height="17.589" viewBox="0 0 19.917 17.589">
  <path id="result_4_" data-name="result (4)" d="M3.732,5A1.737,1.737,0,0,0,2,6.732v9.526a1.726,1.726,0,0,0,1.421,1.691l.568,3.207a1.736,1.736,0,0,0,2,1.407l14.492-2.584a1.736,1.736,0,0,0,1.407-2L20.226,8.6a.4.4,0,0,0-.041-.122V6.732A1.737,1.737,0,0,0,18.454,5Zm0,.866H18.454a.859.859,0,0,1,.866.866v1.3H2.866v-1.3A.859.859,0,0,1,3.732,5.866ZM2.866,10.2H19.32v6.062a.859.859,0,0,1-.866.866H3.732a.859.859,0,0,1-.866-.866Zm2.165,1.3v.866h6.928v-.866Zm15.155,1.827.852,4.8a.858.858,0,0,1-.7,1L5.843,21.711a.858.858,0,0,1-1-.7L4.3,17.99H18.454a1.737,1.737,0,0,0,1.732-1.732Z" transform="translate(-2 -5)" fill="#4b43d0"/>
</svg>
