<svg xmlns="http://www.w3.org/2000/svg" width="23.184" height="17.395" viewBox="0 0 23.184 17.395">
  <g id="email-solid" transform="translate(-1.93 -5.989)">
    <path id="Path_262" data-name="Path 262" d="M24.357,6a1.449,1.449,0,0,0-.3,0H3.774a1.449,1.449,0,0,0-.384.058L13.859,16.48Z" transform="translate(-0.402)" fill="#fff"/>
    <path id="Path_263" data-name="Path 263" d="M25.027,7.39,14.478,17.9a1.449,1.449,0,0,1-2.043,0L1.981,7.47a1.449,1.449,0,0,0-.051.362v14.49a1.449,1.449,0,0,0,1.449,1.449H23.665a1.449,1.449,0,0,0,1.449-1.449V7.832a1.449,1.449,0,0,0-.087-.442ZM4.372,22.322H3.364V21.286l5.267-5.224,1.022,1.022Zm19.279,0H22.636l-5.282-5.238,1.022-1.022,5.267,5.224Z" transform="translate(0 -0.386)" fill="#fff"/>
  </g>
</svg>
