<svg id="Eyes" xmlns="http://www.w3.org/2000/svg" width="17.993" height="14.905" viewBox="0 0 17.993 14.905">
  <path id="Vector" d="M8.75,9.735a2.324,2.324,0,0,0,1.6-.634,2.117,2.117,0,0,0,.664-1.531c0-.063,0-.126-.009-.188L8.552,9.727C8.617,9.732,8.683,9.735,8.75,9.735ZM16.259.871,15.393.045a.168.168,0,0,0-.229,0L12.95,2.16a9.271,9.271,0,0,0-4.119-.894q-5.84,0-8.714,5.807a1.118,1.118,0,0,0,0,1,11.64,11.64,0,0,0,2.766,3.7L.74,13.815a.15.15,0,0,0,0,.219l.865.825a.168.168,0,0,0,.229,0L16.259,1.089a.154.154,0,0,0,.035-.05.148.148,0,0,0,0-.118A.154.154,0,0,0,16.259.871ZM5.185,7.57a3.284,3.284,0,0,1,.463-1.677A3.483,3.483,0,0,1,6.916,4.651a3.712,3.712,0,0,1,3.512-.084l-.985.94a2.374,2.374,0,0,0-1.227-.042,2.3,2.3,0,0,0-1.071.574,2.144,2.144,0,0,0-.6,1.022,2.073,2.073,0,0,0,.044,1.171l-.985.94a3.264,3.264,0,0,1-.42-1.6Z" fill="#888" opacity="0.3"/>
  <path id="Vector-2" data-name="Vector" d="M12.813,3.44A11.686,11.686,0,0,0,10.213,0L7.232,2.735a3.08,3.08,0,0,1,.16,1.89A3.269,3.269,0,0,1,6.406,6.29a3.75,3.75,0,0,1-1.816.9,3.953,3.953,0,0,1-2.061-.147L0,9.367a9.924,9.924,0,0,0,3.915.747q5.963,0,8.9-5.7a1.058,1.058,0,0,0,0-.977Z" transform="translate(5.061 3.726)" fill="#888" opacity="0.3"/>
</svg>
