<svg xmlns="http://www.w3.org/2000/svg" width="28.192" height="28.192" viewBox="0 0 28.192 28.192">
  <g id="plus-circle-line" transform="translate(-2 -2)">
    <path id="Path_184" data-name="Path 184" d="M24.106,16.028H17.79V9.711a.881.881,0,0,0-1.762,0v6.317H9.711a.881.881,0,1,0,0,1.762h6.317v6.317a.881.881,0,0,0,1.762,0V17.79h6.317a.881.881,0,1,0,0-1.762Z" transform="translate(-0.813 -0.813)" fill="#4b43d0"/>
    <path id="Path_185" data-name="Path 185" d="M16.1,2a14.1,14.1,0,1,0,14.1,14.1A14.1,14.1,0,0,0,16.1,2Zm0,26.43A12.334,12.334,0,1,1,28.43,16.1,12.334,12.334,0,0,1,16.1,28.43Z" fill="#4b43d0"/>
  </g>
</svg>
