<svg xmlns="http://www.w3.org/2000/svg" xmlns:xlink="http://www.w3.org/1999/xlink"> 
 
 <!-- Dashboard Icon -->
  <symbol id="dashboard_icon" viewBox="0 0 13.5 13.5">
    <path data-name="Icon material-dashboard" d="M4.5,12h6V4.5h-6Zm0,6h6V13.5h-6ZM12,18h6V10.5H12ZM12,4.5V9h6V4.5Z" transform="translate(-4.5 -4.5)" fill="currentColor"/>
  </symbol>

  <!-- Account Icon -->
  <symbol id="account_icon" viewBox="0 0 17.332 13.02">
    <path id="Icon_material-supervisor-account" data-name="Icon material-supervisor-account" d="M15.565,14.01a2.244,2.244,0,0,0,2.158-2.325A2.244,2.244,0,0,0,15.565,9.36,2.251,2.251,0,0,0,13.4,11.685,2.251,2.251,0,0,0,15.565,14.01Zm-6.5-.93a2.689,2.689,0,0,0,2.591-2.79A2.689,2.689,0,0,0,9.066,7.5a2.7,2.7,0,0,0-2.6,2.79A2.7,2.7,0,0,0,9.066,13.08Zm6.5,2.79c-1.586,0-4.766.856-4.766,2.557V20.52h9.532V18.428C20.332,16.726,17.151,15.87,15.565,15.87Zm-6.5-.93C7.047,14.94,3,16.028,3,18.2V20.52H9.066V18.428A3.7,3.7,0,0,1,11.12,15.2,9.952,9.952,0,0,0,9.066,14.94Z" transform="translate(-3 -7.5)" fill="currentColor"/>
  </symbol>

 <!-- Education Icon -->
  <symbol id="education_icon" viewBox="0 0 16.76 12.57">
    <g id="education" transform="translate(-3.869 -5.13)">
      <path id="student" d="M16.76,12.046a.524.524,0,0,1-1.047,0V5.155l-5.777,2.9A3.44,3.44,0,0,1,8.38,8.38a3.44,3.44,0,0,1-1.555-.327L.638,4.959Q0,4.632,0,4.182t.638-.761L6.825.327A3.44,3.44,0,0,1,8.38,0,3.44,3.44,0,0,1,9.935.327l6.187,3.094a1,1,0,0,1,.622.688.1.1,0,0,1,.016.066v7.872ZM10.458,9.1l3.159-1.588V9.82q0,.7-1.53,1.2a12.046,12.046,0,0,1-3.707.5,12.046,12.046,0,0,1-3.707-.5q-1.53-.5-1.53-1.2V7.512L6.3,9.1a4.914,4.914,0,0,0,2.079.327A4.914,4.914,0,0,0,10.458,9.1Z" transform="translate(3.869 5.13)" fill="currentColor"/>
    </g>
  </symbol>

  <!-- Payment Icon -->
  <symbol id="payment_icon" viewBox="0 0 15.108 12.086">
    <path id="Icon_material-payment" data-name="Icon material-payment" d="M16.6,6H4.511a1.5,1.5,0,0,0-1.5,1.511L3,16.575a1.506,1.506,0,0,0,1.511,1.511H16.6a1.506,1.506,0,0,0,1.511-1.511V7.511A1.506,1.506,0,0,0,16.6,6Zm0,10.575H4.511V12.043H16.6Zm0-7.554H4.511V7.511H16.6Z" transform="translate(-3 -6)" fill="currentColor"/>
  </symbol>

  <!-- Chart Icon -->
  <symbol id="chartpie_icon" viewBox="0 0 14.477 13.625">
    <path id="Icon_awesome-chart-pie" data-name="Icon awesome-chart-pie" d="M14.045,7.664H7.73l4.205,4.205a.427.427,0,0,0,.591.018,6.373,6.373,0,0,0,1.946-3.748.427.427,0,0,0-.427-.475ZM13.624,5.94A6.4,6.4,0,0,0,7.685,0a.428.428,0,0,0-.447.431V6.387h5.955a.428.428,0,0,0,.431-.447ZM5.961,7.664V1.35A.426.426,0,0,0,5.486.922,6.382,6.382,0,0,0,0,7.461a6.465,6.465,0,0,0,6.464,6.163,6.337,6.337,0,0,0,3.6-1.172.423.423,0,0,0,.042-.641Z" transform="translate(0 0)" fill="currentColor"/>
  </symbol>


  <!-- Dollar Icon -->
  <symbol id="dollor_icon" viewBox="0 0 14.795 14.795">
    <g id="dollar-solid" transform="translate(-2 -2)">
      <path id="Path_1786" data-name="Path 1786" d="M9.4,2a7.4,7.4,0,1,0,7.4,7.4A7.4,7.4,0,0,0,9.4,2Zm3.537,9.982a2.807,2.807,0,0,1-2.728,1.849v.925a.578.578,0,0,1-1.156,0v-.925a5.3,5.3,0,0,1-2.89-1.2.579.579,0,1,1,.791-.846,4.212,4.212,0,0,0,2.1.9v-2.9A4.453,4.453,0,0,1,7.331,9.13a2.219,2.219,0,0,1-.883-2.7A2.929,2.929,0,0,1,9.056,4.807V3.965a.578.578,0,1,1,1.156,0v.86a4.471,4.471,0,0,1,2.266.925.578.578,0,0,1-.768.851,3.3,3.3,0,0,0-1.5-.606V8.829c.277.06.573.125.883.222a2.7,2.7,0,0,1,1.706,1.3,2.145,2.145,0,0,1,.134,1.627Z" fill="currentColor"/>
      <path id="Path_1787" data-name="Path 1787" d="M20.291,19.479q-.277-.083-.541-.139V22c.925-.092,1.419-.416,1.632-1.063a.994.994,0,0,0-.069-.731,1.614,1.614,0,0,0-1.022-.731Z" transform="translate(-9.543 -9.323)" fill="currentColor"/>
      <path id="Path_1788" data-name="Path 1788" d="M13.85,11.442a1.068,1.068,0,0,0,.462,1.327,3.019,3.019,0,0,0,1.073.425V10.55A1.786,1.786,0,0,0,13.85,11.442Z" transform="translate(-6.329 -4.597)" fill="currentColor"/>
    </g>
  </symbol>

  <!-- Setting Icon -->
  <symbol id="setting_icon" viewBox="0 0 14.015 14.408">
    <path id="Icon_material-settings" data-name="Icon material-settings" d="M15.768,10.91a4.967,4.967,0,0,0,0-1.412l1.52-1.189a.363.363,0,0,0,.086-.461L15.934,5.356a.362.362,0,0,0-.439-.158l-1.794.72a5.264,5.264,0,0,0-1.218-.706L12.209,3.3a.351.351,0,0,0-.353-.3H8.974a.351.351,0,0,0-.353.3L8.348,5.212a5.535,5.535,0,0,0-1.218.706L5.336,5.2a.351.351,0,0,0-.439.158L3.456,7.848a.355.355,0,0,0,.086.461L5.062,9.5a5.713,5.713,0,0,0-.05.706,5.713,5.713,0,0,0,.05.706L3.542,12.1a.363.363,0,0,0-.086.461L4.9,15.053a.362.362,0,0,0,.439.158l1.794-.72a5.263,5.263,0,0,0,1.218.706l.274,1.909a.351.351,0,0,0,.353.3h2.882a.351.351,0,0,0,.353-.3l.274-1.909a5.535,5.535,0,0,0,1.218-.706l1.794.72a.351.351,0,0,0,.439-.158l1.441-2.493a.363.363,0,0,0-.086-.461l-1.52-1.189Zm-5.353,1.815A2.521,2.521,0,1,1,12.937,10.2,2.524,2.524,0,0,1,10.415,12.726Z" transform="translate(-3.406 -3)" fill="currentColor"/>
  </symbol>

 <!-- Search Icon -->
<symbol id="search_icon" viewBox="0 0 13.223 13.223">
  <path id="search" d="M16.576,15.886l-3.7-3.715a5.383,5.383,0,1,0-.71.71l3.715,3.7ZM4.341,8.746a4.4,4.4,0,1,1,4.4,4.4A4.4,4.4,0,0,1,4.341,8.746Z" transform="translate(-3.353 -3.353)" fill="currentColor"/>
</symbol>

<!-- Plus Icon -->
<symbol id="plus_icon" viewBox="0 0 7.807 7.807">
  <path d="M7.249,5.317H4.74V2.808a.558.558,0,0,0-.558-.558H3.625a.558.558,0,0,0-.558.558V5.317H.558A.558.558,0,0,0,0,5.875v.558a.558.558,0,0,0,.558.558H3.067V9.5a.558.558,0,0,0,.558.558h.558A.558.558,0,0,0,4.74,9.5V6.99H7.249a.558.558,0,0,0,.558-.558V5.875A.558.558,0,0,0,7.249,5.317Z" transform="translate(0 -2.25)" fill="currentColor"/>
</symbol>
<!-- Document Icon -->
<symbol id="document-icon" viewBox="0 0 22.209 28.266">
  <g id="document-text" transform="translate(-5.625 -2.25)">
    <path id="Path_170" data-name="Path 170" d="M27.582,14.364H18.748a3.028,3.028,0,0,1-3.028-3.028V2.5a.252.252,0,0,0-.252-.252h-5.8A4.038,4.038,0,0,0,5.625,6.288v20.19a4.038,4.038,0,0,0,4.038,4.038H23.8a4.038,4.038,0,0,0,4.038-4.038V14.616A.252.252,0,0,0,27.582,14.364Zm-5.8,10.095H11.682a1.009,1.009,0,1,1,0-2.019H21.777a1.009,1.009,0,0,1,0,2.019Zm0-5.047H11.682a1.009,1.009,0,1,1,0-2.019H21.777a1.009,1.009,0,0,1,0,2.019Z" transform="translate(0)" fill="currentColor"/>
    <path id="Path_171" data-name="Path 171" d="M28.413,12.218,19.34,3.145a.127.127,0,0,0-.215.089v8.19a1.009,1.009,0,0,0,1.009,1.009h8.19a.127.127,0,0,0,.089-.215Z" transform="translate(-1.386 -0.088)" fill="currentColor"/>
  </g>
</symbol>

<!-- Attached Icon -->
<symbol id="attached-icon" viewBox="0 0 11.396 10.24">
  <path id="attach" d="M0,3.032A3.366,3.366,0,0,0,.271,4.358,3.5,3.5,0,0,0,1.024,5.48l4.587,4.546L6.246,9.4,1.659,4.855A2.441,2.441,0,0,1,.9,3.032,2.049,2.049,0,0,1,3.01.923a2.581,2.581,0,0,1,1.843.768L9.9,6.7a1.881,1.881,0,0,1,.6,1.362,1.286,1.286,0,0,1-.379.957,1.315,1.315,0,0,1-.962.374,1.891,1.891,0,0,1-1.372-.6L3.932,4.978a1.564,1.564,0,0,1-.543-.993.4.4,0,0,1,.164-.338.631.631,0,0,1,.389-.123,1.188,1.188,0,0,1,.881.41L8.3,7.374l.625-.625L5.458,3.309a2.1,2.1,0,0,0-1.515-.676,1.5,1.5,0,0,0-1.024.379,1.225,1.225,0,0,0-.43.962A2.39,2.39,0,0,0,3.3,5.6l3.86,3.809a2.751,2.751,0,0,0,2.007.86,2.18,2.18,0,0,0,1.592-.63A2.126,2.126,0,0,0,11.4,8.06a2.728,2.728,0,0,0-.86-1.986L5.488,1.066A3.447,3.447,0,0,0,3.01.032,2.922,2.922,0,0,0,.865.892,2.9,2.9,0,0,0,0,3.032Z" transform="translate(0 -0.032)" fill="currentColor"/>
</symbol>

<!-- Close Icon -->
<symbol id="close-icon" viewBox="0 0 6.709 6.709">
  <g id="Group_2309" data-name="Group 2309" transform="translate(0.53 0.53)">
    <path id="Path_195" data-name="Path 195" d="M-4064.68,6278l5.649,5.649" transform="translate(4064.68 -6278)" fill="none" stroke="currentColor" stroke-width="1.5"/>
    <path id="Path_196" data-name="Path 196" d="M-4064.68,6283.648l5.649-5.649" transform="translate(4064.68 -6278)" fill="none" stroke="currentColor" stroke-width="1.5"/>
  </g>
</symbol>

<!-- Checked Icon -->
<symbol id="checked-green-icon"  viewBox="0 0 78 78">

  <g id="Group_2310" data-name="Group 2310" transform="translate(-2230 -7359)">
    <circle id="Ellipse_10" data-name="Ellipse 10" cx="34.465" cy="34.465" r="34.465" transform="translate(2234.535 7363.535)" fill="url(#linear-gradient)"/>
    <path id="Path_1764" data-name="Path 1764" d="M2255.524,7408.146l10.848,10.848,19.346-19.346" transform="translate(-1.621 -11.32)" fill="none" stroke="#fff" stroke-linecap="round" stroke-width="3"/>
    <g id="Ellipse_11" data-name="Ellipse 11" transform="translate(2230 7359)" fill="none" stroke="#3ad80c" stroke-width="1">
      <circle cx="39" cy="39" r="39" stroke="none"/>
      <circle cx="39" cy="39" r="38.5" fill="none"/>
    </g>
  </g>
</symbol>

<!-- warning Icon -->
<symbol id="warning-icon" viewBox="0 0 13.668 12.845">
  <path d="M18.664,16.488l-5.22-9.615a1.608,1.608,0,0,0-2.824,0L5.394,16.488a1.608,1.608,0,0,0,1.415,2.39h10.44A1.608,1.608,0,0,0,18.664,16.5Zm-7.434-6.86a.8.8,0,1,1,1.608,0v3.693a.8.8,0,1,1-1.608,0Zm.825,7.241a.922.922,0,1,1,.922-.922.922.922,0,0,1-.922.922Z" transform="translate(-5.191 -6.034)" fill="currentColor"/>
</symbol>

<!-- Full screen Icon -->
<symbol id="fullscreen-icon" viewBox="0 0 22.169 22.171">
  <g id="Group_115" data-name="Group 115" transform="translate(-5223.8 -3903.17)">
    <g id="Group_100" data-name="Group 100" transform="translate(5234.91 3909.946) rotate(-45)">
      <path id="Path_170" data-name="Path 170" d="M0,0,3.03,3.03,0,6.06" transform="translate(4.429 0)" fill="none" stroke="#707070" stroke-linecap="round" stroke-width="1.5"/>
      <line id="Line_3" data-name="Line 3" x1="6.698" transform="translate(0 3.029)" fill="none" stroke="#707070" stroke-linecap="round" stroke-width="1.5"/>
    </g>
    <g id="Group_101" data-name="Group 101" transform="translate(5230.575 3914.23) rotate(-135)">
      <path id="Path_170-2" data-name="Path 170" d="M0,0,3.03,3.03,0,6.06" transform="translate(4.429 0)" fill="none" stroke="#707070" stroke-linecap="round" stroke-width="1.5"/>
      <line id="Line_3-2" data-name="Line 3" x1="6.698" transform="translate(0 3.029)" fill="none" stroke="#707070" stroke-linecap="round" stroke-width="1.5"/>
    </g>
    <g id="Group_102" data-name="Group 102" transform="translate(5234.859 3918.566) rotate(135)">
      <path id="Path_170-3" data-name="Path 170" d="M0,6.06,3.03,3.03,0,0" transform="translate(4.429 0)" fill="none" stroke="#707070" stroke-linecap="round" stroke-width="1.5"/>
      <line id="Line_3-3" data-name="Line 3" x1="6.698" transform="translate(0 3.03)" fill="none" stroke="#707070" stroke-linecap="round" stroke-width="1.5"/>
    </g>
    <g id="Group_103" data-name="Group 103" transform="translate(5239.194 3914.281) rotate(45)">
      <path id="Path_170-4" data-name="Path 170" d="M0,6.06,3.03,3.03,0,0" transform="translate(4.429 0)" fill="none" stroke="#707070" stroke-linecap="round" stroke-width="1.5"/>
      <line id="Line_3-4" data-name="Line 3" x1="6.698" transform="translate(0 3.03)" fill="none" stroke="#707070" stroke-linecap="round" stroke-width="1.5"/>
    </g>
  </g>
</symbol>
<!-- Right Arrow Icon --> 
<symbol id="arrowright-icon" viewBox="0 0 13.092 13.729">
  <g id="Group_99" data-name="Group 99" transform="translate(-3359.969 -2655.385)">
    <path id="Path_170" data-name="Path 170" d="M3338.666,2612.9l5.8,5.8-5.8,5.8" transform="translate(27.53 43.547)" fill="none" stroke="#707070" stroke-linecap="round" stroke-width="1.5"/>
    <line id="Line_3" data-name="Line 3" x1="10.378" transform="translate(3360.719 2662.25)" fill="none" stroke="#707070" stroke-linecap="round" stroke-width="1.5"/>
  </g>
</symbol>
<!-- minimize Icon --> 
<symbol id="minimize-icon" viewBox="0 0 17.006 17.008">
  <g id="Group_114" data-name="Group 114" transform="translate(-3737.382 -3656.752)">
    <g id="Group_11" data-name="Group 11" transform="translate(3755.47 3659.957) rotate(135)">
      <path id="Path_170" data-name="Path 170" d="M0,0,3.03,3.03,0,6.06" transform="translate(4.429 0)" fill="none" stroke="#707070" stroke-linecap="round" stroke-width="1.5"/>
      <line id="Line_3" data-name="Line 3" x1="6.698" transform="translate(0 3.03)" fill="none" stroke="#707070" stroke-linecap="round" stroke-width="1.5"/>
    </g>
    <g id="Group_14" data-name="Group 14" transform="translate(3740.585 3655.67) rotate(45)">
      <path id="Path_170-2" data-name="Path 170" d="M0,0,3.03,3.03,0,6.06" transform="translate(4.429 0)" fill="none" stroke="#707070" stroke-linecap="round" stroke-width="1.5"/>
      <line id="Line_3-2" data-name="Line 3" x1="6.698" transform="translate(0 3.029)" fill="none" stroke="#707070" stroke-linecap="round" stroke-width="1.5"/>
    </g>
    <g id="Group_12" data-name="Group 12" transform="translate(3736.3 3670.556) rotate(-45)">
      <path id="Path_170-3" data-name="Path 170" d="M0,6.06,3.03,3.03,0,0" transform="translate(4.429 0)" fill="none" stroke="#707070" stroke-linecap="round" stroke-width="1.5"/>
      <line id="Line_3-3" data-name="Line 3" x1="6.698" transform="translate(0 3.03)" fill="none" stroke="#707070" stroke-linecap="round" stroke-width="1.5"/>
    </g>
    <g id="Group_13" data-name="Group 13" transform="translate(3751.184 3674.841) rotate(-135)">
      <path id="Path_170-4" data-name="Path 170" d="M0,6.06,3.03,3.03,0,0" transform="translate(4.429 0)" fill="none" stroke="#707070" stroke-linecap="round" stroke-width="1.5"/>
      <line id="Line_3-4" data-name="Line 3" x1="6.698" transform="translate(0 3.03)" fill="none" stroke="#707070" stroke-linecap="round" stroke-width="1.5"/>
    </g>
  </g>
</symbol>
<!-- Arrow Icon --> 
<symbol id="arrow-icon" viewBox="0 0 11.251 6.686">
  <path id="Path_1742" data-name="Path 1742" d="M-9.385,5386.915l5.1,5.1,5.1-5.1" transform="translate(9.915 -5386.385)" fill="none" stroke="currentColor" stroke-width="1.5"/>
</symbol>

<!-- Edit Icon -->
<symbol id="edit-icon" viewBox="0 0 14.778 14.908">
  <g id="Icon_feather-edit" data-name="Icon feather-edit" transform="translate(-2.25 -1.938)">
    <path id="Path_652" data-name="Path 652" d="M8.939,6H4.32A1.32,1.32,0,0,0,3,7.32v9.238a1.32,1.32,0,0,0,1.32,1.32h9.238a1.32,1.32,0,0,0,1.32-1.32V11.939" transform="translate(0 -1.782)" fill="none" stroke="currentColor" stroke-linecap="round" stroke-linejoin="round" stroke-width="1.5"/>
    <path id="Path_653" data-name="Path 653" d="M18.929,3.228a1.4,1.4,0,0,1,1.98,1.98L14.64,11.477l-2.64.66.66-2.64Z" transform="translate(-5.041 0)" fill="none" stroke="currentColor" stroke-linecap="round" stroke-linejoin="round" stroke-width="1.5"/>
  </g>
</symbol>
<!-- Trash Icon -->
<symbol id="trash-icon" viewBox="0 0 14.831 16.497">
  <path id="Path_654" data-name="Path 654" d="M16.5,6.333l-.722,10.116A1.666,1.666,0,0,1,14.113,18h-6.9a1.666,1.666,0,0,1-1.662-1.548L4.833,6.333M9,9.665v5m3.333-5v5m.833-8.332v-2.5A.833.833,0,0,0,12.332,3H9a.833.833,0,0,0-.833.833v2.5M4,6.333H17.331" transform="translate(-3.25 -2.25)" fill="none" stroke="currentColor" stroke-linecap="round" stroke-linejoin="round" stroke-width="1.5"/>
</symbol>

<!-- image add Icon -->
<symbol id="imageadd_icon" viewBox="0 0 21.164 21.164">
  <path d="M27.164,4.842V7.069H23.822v3.342H21.595V7.069H18.253V4.842h3.342V1.5h2.228V4.842Zm-9.468,7.8a1.672,1.672,0,1,0-1.672-1.671A1.672,1.672,0,0,0,17.7,12.639Zm3.9,3.6-.572-.635a2.228,2.228,0,0,0-3.315,0l-.73.813-5.408-6.008L8.228,14.124V7.069h7.8V4.842h-7.8A2.228,2.228,0,0,0,6,7.069V20.436a2.228,2.228,0,0,0,2.228,2.228H21.595a2.228,2.228,0,0,0,2.228-2.228v-7.8H21.595Z" transform="translate(-6 -1.5)"/>
</symbol>

<!-- Mastercard Icon -->
<symbol id="mastercard-icon" viewBox="0 0 22.859 14.043">
  <g id="Mastercard" transform="translate(-9.371 -8.3)">
    <path id="Path_191" data-name="Path 191" d="M23.548,20.926a7.022,7.022,0,0,0,0-14.043,6.854,6.854,0,0,0-4.5,1.678,6.854,6.854,0,0,0-4.5-1.677,7.022,7.022,0,0,0,0,14.043,6.854,6.854,0,0,0,4.5-1.678A6.854,6.854,0,0,0,23.548,20.926Z" transform="translate(1.75 1.418)" fill="#ed0006" fill-rule="evenodd"/>
    <path id="Path_192" data-name="Path 192" d="M20.9,19.249a7.08,7.08,0,0,0,0-10.689,6.854,6.854,0,0,1,4.5-1.677,7.022,7.022,0,0,1,0,14.043A6.854,6.854,0,0,1,20.9,19.249Z" transform="translate(-0.1 1.418)" fill="#f9a000" fill-rule="evenodd"/>
    <path id="Path_193" data-name="Path 193" d="M20.506,19.52a7.08,7.08,0,0,0,0-10.688,7.08,7.08,0,0,0,0,10.688Z" transform="translate(0.294 1.146)" fill="#ff5e00" fill-rule="evenodd"/>
  </g>
</symbol>
<!-- Visa Icon -->
<symbol id="visa-icon" viewBox="0 0 24.087 7.688">
  <path id="Path_194" data-name="Path 194" d="M11.339,17.673H9.254L7.691,11.709a.962.962,0,0,0-.463-.631,6.786,6.786,0,0,0-1.911-.631v-.23H8.675a.875.875,0,0,1,.869.745l.811,4.3,2.084-5.047h2.027Zm4.286,0H13.656l1.621-7.456h1.969Zm4.168-5.39a.763.763,0,0,1,.811-.631A3.668,3.668,0,0,1,22.514,12l.348-1.605a4.984,4.984,0,0,0-1.8-.345c-1.911,0-3.3,1.033-3.3,2.466,0,1.09.985,1.663,1.68,2.008.752.344,1.042.574.984.917,0,.516-.579.745-1.158.745a4.965,4.965,0,0,1-2.027-.459L16.9,17.329a5.681,5.681,0,0,0,2.143.4c2.143.057,3.474-.975,3.474-2.524C22.514,13.257,19.792,13.142,19.792,12.283Zm9.611,5.39-1.563-7.456H26.161a.871.871,0,0,0-.811.574l-2.895,6.882h2.027l.4-1.089h2.49l.232,1.089Zm-2.952-5.448.578,2.81H25.409Z" transform="translate(-5.316 -10.045)" fill="#172b85" fill-rule="evenodd"/>
</symbol>

<!-- Calendar Date Icon -->
<symbol id="calendar-icon" viewBox="0 0 8.519 9.465">
  <path id="Icon_material-date-range" data-name="Icon material-date-range" d="M7.34,7.259H6.393v.947H7.34Zm1.893,0H8.286v.947h.947Zm1.893,0h-.947v.947h.947Zm.947-3.313H11.6V3h-.947v.947H6.866V3H5.92v.947H5.447a.942.942,0,0,0-.942.947l0,6.626a.946.946,0,0,0,.947.947h6.626a.949.949,0,0,0,.947-.947V4.893A.949.949,0,0,0,12.072,3.947Zm0,7.572H5.447V6.313h6.626Z" transform="translate(-4.5 -3)" fill="currentColor"/>
</symbol>

<!-- Download Icon -->
<symbol id="download-icon" viewBox="0 0 16 16">
  <g id="Group_2323" data-name="Group 2323" transform="translate(-581 -5345)">
    <circle id="Ellipse_6" data-name="Ellipse 6" cx="8" cy="8" r="8" transform="translate(581 5345)" fill="#4b43d0"/>
    <g id="download" transform="translate(579.736 5347.046)">
      <path id="Path_1744" data-name="Path 1744" d="M-2.215,12.7l3.38,3.38,3.38-3.38" transform="translate(8.158 -6.619)" fill="none" stroke="#fff" stroke-linecap="round" stroke-width="1"/>
      <path id="Path_1745" data-name="Path 1745" d="M.745,10.025v7.109" transform="translate(8.579 -7.964)" fill="none" stroke="#fff" stroke-linecap="round" stroke-width="1"/>
    </g>
  </g>
</symbol>
<!-- Delete Icon -->
<symbol  id="delete-icon"  viewBox="0 0 13.5 15.75">
  <g id="delete" transform="translate(-4.5 -2.25)">
    <path id="Path_179" data-name="Path 179" d="M13.5,13.5h1.125v6.75H13.5Z" transform="translate(-4.5 -5.625)" fill="#e10000"/>
    <path id="Path_180" data-name="Path 180" d="M20.25,13.5h1.125v6.75H20.25Z" transform="translate(-7.875 -5.625)" fill="#e10000"/>
    <path id="Path_181" data-name="Path 181" d="M4.5,6.75V7.875H5.625v11.25A1.125,1.125,0,0,0,6.75,20.25h9a1.125,1.125,0,0,0,1.125-1.125V7.875H18V6.75ZM6.75,19.125V7.875h9v11.25Z" transform="translate(0 -2.25)" fill="#e10000"/>
    <path id="Path_182" data-name="Path 182" d="M13.5,2.25H18V3.375H13.5Z" transform="translate(-4.5)" fill="#e10000"/>
  </g>
</symbol>

<!-- Phone Icon -->
<symbol id="phone-icon" viewBox="0 0 16 16">
  <g id="Group_2324" data-name="Group 2324" transform="translate(-1746 -5335)">
    <rect id="Rectangle_2602" data-name="Rectangle 2602" width="16" height="16" rx="4" transform="translate(1746 5335)" fill="#4b43d0"/>
    <path id="phone" d="M5.011,7.5,5,7.46A8.9,8.9,0,0,1,4.5,5,.5.5,0,0,1,5,4.5H6.5a1,1,0,0,1,1,1v1a1,1,0,0,1-1,1H6.079a8.014,8.014,0,0,0,4.411,4.411v-.418a1,1,0,0,1,1-1h1a1,1,0,0,1,1,1v1.5a.582.582,0,0,1-.5.5,7.7,7.7,0,0,1-2.5-.5A9.061,9.061,0,0,1,5.011,7.5Z" transform="translate(1745.008 5334.507)" fill="#fff" fill-rule="evenodd"/>
  </g>
</symbol>
<!-- Download Icon -->
<symbol id="download-iconv2" viewBox="0 0 12.118 14.138">
  <g id="download" transform="translate(-4.5 -2.25)">
    <path id="Path_183" data-name="Path 183" d="M16.848,8.814,16.137,8.1,12.3,11.929V2.25h-1.01v9.679L7.462,8.1l-.712.712L11.8,13.863Z" transform="translate(-1.24)"/>
    <path id="Path_184" data-name="Path 184" d="M15.608,27v2.02H5.51V27H4.5v2.02a1.01,1.01,0,0,0,1.01,1.01h10.1a1.01,1.01,0,0,0,1.01-1.01V27Z" transform="translate(0 -13.642)"/>
  </g>
</symbol>

<!-- Humburger Icon -->
<symbol id="humburger-icon" viewBox="0 0 16.137 13.5">
  <g id="Icon_ionic-ios-menu" data-name="Icon ionic-ios-menu" transform="translate(-5.25 -8.564)">
    <line id="Line_26" data-name="Line 26" x2="14.637" transform="translate(6 9.314)" fill="none" stroke="#bababa" stroke-linecap="round" stroke-width="1.5"/>
    <line id="Line_27" data-name="Line 27" x2="10.637" transform="translate(10 15.314)" fill="none" stroke="#bababa" stroke-linecap="round" stroke-width="1.5"/>
    <line id="Line_28" data-name="Line 28" x2="14.637" transform="translate(6 21.314)" fill="none" stroke="#bababa" stroke-linecap="round" stroke-width="1.5"/>
    <path id="Path_145" data-name="Path 145" d="M30.613,12.687,28.031,15.27l2.583,2.583" transform="translate(-19)" fill="none" stroke="#bababa" stroke-linecap="round" stroke-width="1.5"/>
  </g>
</symbol>

<!-- Admin Setting -->
<symbol viewBox="0 0 512 512" id="adminsetting-icon">
  <path d="m256 139.25c57.854 0 107.548 43.122 115.593 100.305.577 4.102 4.367 6.96 8.472 6.382 4.102-.577 6.959-4.37 6.382-8.472-8.994-63.927-65.931-113.215-130.447-113.215-72.647 0-131.75 59.103-131.75 131.75 0 71.604 60.169 131.75 131.75 131.75 65.438 0 122.831-50.427 130.775-115.653.5-4.112-2.427-7.851-6.539-8.352-4.107-.502-7.851 2.426-8.352 6.538-2.495 20.496-10.502 39.954-22.941 56.328-.275-12.318-8.183-23.194-19.876-27.188l-31.599-10.81c3.827-6.563 6.031-14.184 6.031-22.314l-.001-60.852c0-19.259-15.669-34.928-34.928-34.928h-25.143c-19.259 0-34.928 15.668-34.928 34.928l.001 60.853c0 8.13 2.204 15.75 6.031 22.314l-31.595 10.809c-11.723 4.004-19.642 14.919-19.883 27.271-15.453-20.189-23.803-44.707-23.803-70.694 0-64.376 52.374-116.75 116.75-116.75zm-32.5 127.05v-28.389h8.538c10.242 0 19.523-5.694 25.643-13.582 3.54 7.257 10.707 13.582 19.213 13.582h11.606v28.389c0 39.185-65 39.185-65 0zm.001-60.852c0-10.988 8.939-19.928 19.928-19.928h25.143c10.988 0 19.928 8.939 19.928 19.928v17.463h-11.605c-1.688 0-3.256-.909-4.095-2.372l-7.127-12.43c-2.545-4.437-8.57-5.004-11.958-1.421l-10.975 11.612c-2.77 2.93-6.67 4.611-10.702 4.611h-8.537zm-35.713 108.168 37.262-12.748c16.566 13.397 45.4 13.344 61.9 0l37.266 12.749c5.834 1.993 9.754 7.479 9.754 13.653v15.621c-43.556 39.132-112.426 39.094-155.939 0v-15.621c-.001-6.173 3.919-11.66 9.757-13.654z" fill="currentColor" data-original="#000000" class=""></path>
  <path d="m506.374 215.378-51.944-13.407c-4.563-16.816-11.247-32.952-19.917-48.084l27.247-46.208c1.737-2.946 1.262-6.694-1.156-9.113l-47.17-47.17c-2.42-2.418-6.167-2.896-9.113-1.157l-46.207 27.248c-15.132-8.669-31.271-15.354-48.084-19.917l-13.408-51.944c-.854-3.312-3.842-5.626-7.262-5.626h-66.72c-3.42 0-6.407 2.314-7.262 5.626l-13.407 51.945c-16.813 4.563-32.952 11.247-48.084 19.917l-46.207-27.248c-2.948-1.739-6.696-1.261-9.113 1.157l-47.17 47.17c-2.418 2.418-2.894 6.167-1.156 9.113l27.247 46.208c-8.67 15.132-15.354 31.268-19.917 48.084l-51.945 13.406c-3.312.855-5.626 3.842-5.626 7.262v66.72c0 3.42 2.314 6.407 5.626 7.262l51.944 13.407c4.563 16.816 11.247 32.952 19.917 48.084l-27.247 46.207c-1.737 2.946-1.262 6.694 1.156 9.113l12.729 12.73c2.929 2.929 7.677 2.929 10.607 0 2.929-2.929 2.929-7.677 0-10.606l-8.622-8.622 26.54-45.005c1.399-2.373 1.386-5.321-.035-7.68-9.785-16.243-17.058-33.8-21.616-52.185-.662-2.674-2.737-4.769-5.405-5.458l-50.594-13.057v-55.1l50.594-13.058c2.668-.688 4.743-2.784 5.405-5.458 4.559-18.384 11.831-35.942 21.616-52.185 1.421-2.359 1.435-5.307.035-7.68l-26.539-45.005 38.954-38.953 45.005 26.539c2.372 1.399 5.319 1.385 7.68-.036 16.243-9.784 33.801-17.056 52.185-21.614 2.674-.663 4.769-2.738 5.457-5.405l13.058-50.595h55.1l13.059 50.595c.688 2.667 2.783 4.742 5.457 5.405 18.384 4.558 35.941 11.83 52.185 21.614 2.359 1.421 5.307 1.436 7.68.036l45.005-26.539 38.954 38.953-26.54 45.006c-1.399 2.373-1.386 5.321.035 7.68 9.785 16.243 17.058 33.8 21.616 52.185.662 2.674 2.737 4.769 5.405 5.458l50.594 13.057v55.1l-50.594 13.058c-2.668.688-4.743 2.784-5.405 5.458-4.559 18.384-11.831 35.942-21.616 52.185-1.421 2.359-1.435 5.307-.035 7.68l26.539 45.005-38.954 38.953-45.005-26.539c-2.373-1.399-5.32-1.385-7.68.036-16.243 9.785-33.801 17.057-52.185 21.614-2.674.663-4.769 2.738-5.457 5.405l-13.058 50.595h-55.1l-13.059-50.595c-.688-2.667-2.783-4.742-5.457-5.405-18.384-4.558-35.941-11.83-52.185-21.614-2.36-1.421-5.308-1.435-7.68-.036l-45.005 26.539-7.223-7.221c-2.929-2.931-7.678-2.929-10.606 0-2.929 2.929-2.929 7.678.001 10.606l11.33 11.33c2.418 2.417 6.164 2.894 9.112 1.157l46.207-27.248c15.132 8.669 31.271 15.354 48.084 19.917l13.407 51.945c.854 3.312 3.842 5.626 7.262 5.626h66.721c3.42 0 6.407-2.314 7.262-5.626l13.407-51.945c16.813-4.563 32.952-11.247 48.084-19.917l46.207 27.248c2.946 1.737 6.695 1.26 9.113-1.157l47.17-47.17c2.418-2.418 2.894-6.167 1.156-9.113l-27.247-46.208c8.67-15.132 15.354-31.268 19.917-48.084l51.944-13.407c3.312-.855 5.626-3.842 5.626-7.262v-66.72c.002-3.42-2.312-6.407-5.624-7.262z" fill="currentColor" data-original="#000000" class=""></path>
  <path d="m238.879 93.741c-39.833 4.172-76.68 22.916-103.753 52.776-27.269 30.077-42.286 68.959-42.286 109.483 0 89.967 73.193 163.16 163.16 163.16s163.16-73.193 163.16-163.16c0-82.153-64.278-153.695-146.039-162.259-4.132-.434-7.809 2.559-8.24 6.678-.432 4.12 2.558 7.809 6.678 8.24 75.595 7.92 132.601 71.262 132.601 147.341 0 81.696-66.465 148.16-148.16 148.16s-148.16-66.464-148.16-148.16c0-76.079 57.006-139.421 132.602-147.341 4.12-.431 7.109-4.121 6.678-8.24-.432-4.119-4.111-7.105-8.241-6.678z" fill="currentColor" data-original="#000000" class=""></path>
  </symbol>

<!-- Role Permission Setting -->
<symbol  viewBox="0 0 496.00128 496"  id="rolesetting-icon">
  <path xmlns="http://www.w3.org/2000/svg" d="m91.785156 439.441406c-4.425781 0-8-3.578125-8-8v-38.570312c0-4.421875 3.574219-8 8-8 4.421875 0 8 3.578125 8 8v38.570312c0 4.414063-3.585937 8-8 8zm0 0" fill="currentColor" data-original="#000000" class=""></path>
  <path xmlns="http://www.w3.org/2000/svg" d="m260.199219 451.207031h-252.199219c-4.425781 0-8-3.574219-8-8v-78.351562c0-72.167969 44.257812-136.734375 110.121094-160.648438 2.726562-1 5.757812-.429687 7.933594 1.449219 18.167968 15.558594 41.089843 24.136719 64.554687 24.136719 23.574219 0 46.566406-8.625 64.742187-24.296875 2.191407-1.878906 5.25-2.449219 7.960938-1.457032 17.007812 6.1875 32.855469 15.1875 47.101562 26.761719 1.953126 1.574219 3.050782 3.984375 2.953126 6.496094-.085938 2.503906-1.34375 4.832031-3.398438 6.265625l-.96875.679688-4.398438-6.273438-4.265624 5.257812c-11.671876-9.480468-24.519532-17.042968-38.257813-22.53125-20.453125 16.21875-45.644531 25.105469-71.46875 25.105469-25.707031 0-50.824219-8.824219-71.25-24.9375-57.222656 22.808594-95.359375 80.089844-95.359375 143.992188v70.351562h244.199219zm0 0" fill="currentColor" data-original="#000000" class=""></path><path xmlns="http://www.w3.org/2000/svg" d="m182.609375 245.792969c-65.074219 0-118.007813-55.136719-118.007813-122.894531 0-67.761719 52.933594-122.898438 118.007813-122.898438 65.070313 0 118.015625 55.128906 118.015625 122.886719 0 67.761719-52.945312 122.90625-118.015625 122.90625zm0-229.792969c-56.25 0-102.007813 47.953125-102.007813 106.886719 0 58.945312 45.757813 106.898437 102.007813 106.898437 56.246094 0 102.015625-47.953125 102.015625-106.898437 0-58.933594-45.769531-106.886719-102.015625-106.886719zm0 0" fill="currentColor" data-original="#000000" class=""></path><g xmlns="http://www.w3.org/2000/svg" fill="currentColor"><path d="m356.847656 411.207031c-3.335937 0-6.6875-.300781-10.023437-.917969-14.679688-2.726562-27.503907-11.191406-36.128907-23.855468-8.574218-12.632813-11.832031-27.769532-9.167968-42.601563 2.679687-14.863281 11.007812-27.863281 23.449218-36.617187 12.488282-8.773438 27.464844-12.078125 42.160157-9.382813 14.6875 2.730469 27.503906 11.199219 36.109375 23.863281l.066406.089844c8.488281 12.847656 11.71875 27.953125 9.113281 42.503906-2.683593 14.855469-11 27.855469-23.449219 36.609376-9.65625 6.78125-20.792968 10.308593-32.128906 10.308593zm.28125-98.300781c-8.082031 0-16.03125 2.527344-22.945312 7.398438-8.976563 6.304687-14.976563 15.664062-16.894532 26.359374-1.921874 10.6875.445313 21.617188 6.65625 30.777344 6.191407 9.101563 15.359376 15.175782 25.808594 17.121094 10.398438 1.917969 21.078125-.464844 30.023438-6.753906 8.976562-6.304688 14.976562-15.664063 16.894531-26.351563 1.878906-10.472656-.496094-21.417969-6.6875-30.816406-6.175781-9.078125-15.328125-15.144531-25.769531-17.078125-2.367188-.433594-4.726563-.65625-7.085938-.65625zm0 0" fill="currentColor" data-original="currentColor"></path><path d="m358.871094 496c-1.015625 0-2.046875-.09375-3.070313-.28125l-46.890625-8.6875c-8.957031-1.664062-14.703125-10.046875-13.078125-19.085938l3.742188-20.832031c-.519531-.34375-1.015625-.695312-1.476563-1.046875l-.601562-.394531-17.304688 12.167969c-3.128906 2.394531-7.496094 3.472656-11.734375 2.761718-4.378906-.714843-8.3125-3.234374-10.808593-6.914062l-27.023438-39.742188c-2.359375-3.207031-3.367188-7.480468-2.65625-11.785156.710938-4.34375 3.167969-8.273437 6.75-10.785156l16.9375-12.222656c-.136719-.65625-.25-1.28125-.351562-1.863282-.058594-.296874-.105469-.601562-.152344-.914062l-20.449219-3.789062c-4.191406-.785157-7.960937-3.296876-10.328125-6.90625-2.429688-3.710938-3.207031-8.144532-2.207031-12.488282l8.496093-47.277344c.792969-4.417968 3.183594-8.203124 6.75-10.671874 3.546876-2.457032 7.882813-3.363282 12.21875-2.5625l20.296876 3.769531c.316406-.503907.644531-.984375.972656-1.433594l.503906-.816406-12.070312-17.75c-2.351563-3.191407-3.359376-7.457031-2.664063-11.761719.710937-4.34375 3.167969-8.277344 6.742187-10.800781l39.128907-27.503907c3.136719-2.382812 7.511719-3.4375 11.738281-2.757812 4.375.710938 8.3125 3.230469 10.808594 6.910156l12.007812 17.65625c.222656-.054687.445313-.117187.664063-.175781.261719-.078125.535156-.144531.8125-.191406.28125-.054688.570312-.105469.859375-.144531l3.75-20.871094c.808594-4.433594 3.199218-8.207032 6.769531-10.679688 3.535156-2.449218 7.863281-3.34375 12.207031-2.550781l46.664063 8.648437c8.960937 1.660157 14.703125 10.046876 13.078125 19.085938l-3.75 20.832031c.527344.34375 1.023437.695313 1.488281 1.046875l.597656.394532 17.304688-12.167969c3.136719-2.386719 7.511719-3.449219 11.738281-2.761719 4.375.710938 8.3125 3.230469 10.808594 6.914062l26.8125 39.726563c2.335937 3.167969 3.34375 7.433594 2.648437 11.734375-.710937 4.34375-3.167969 8.28125-6.742187 10.800781l-17.472656 12.273438c.070312.320312.144531.632812.222656.925781.074218.257812.136718.511719.175781.785156.058594.3125.113281.625.160156.945313l20.441407 3.789062c8.191406 1.523438 13.929687 9.105469 13.65625 18.011719-.015626.390625-.054688.78125-.128907 1.167969l-8.566406 47.671875c-.800781 4.421875-3.191406 8.207031-6.769531 10.679687-3.550782 2.445313-7.871094 3.320313-12.214844 2.542969l-20.28125-3.769531c-.320312.503906-.648438.984375-.976562 1.433593l-.503907.808594 12.074219 17.757813c2.359375 3.210937 3.367188 7.480469 2.65625 11.785156-.714844 4.34375-3.167969 8.273437-6.753906 10.785156l-39.113282 27.496094c-3.132812 2.390625-7.492187 3.460937-11.734374 2.765625-4.367188-.71875-8.304688-3.230469-10.808594-6.902344l-11.949219-17.585937c-.523437.105469-1.035156.203125-1.53125.296875-.285156.046875-.566406.105468-.863281.144531l-3.75 20.863281c-.792969 4.417969-3.183594 8.199219-6.753906 10.671875-2.710938 1.855469-5.871094 2.824219-9.152344 2.824219zm-61.3125-68.152344c1.960937 0 3.914062.722656 5.441406 2.136719.816406.753906 1.753906 1.320313 2.6875 1.9375l1.832031 1.214844c.800781.59375 1.984375 1.398437 4.304688 2.472656 3.304687 1.527344 5.167969 5.09375 4.519531 8.679687l-4.757812 26.488282 47.132812 9.207031 5.074219-26.816406c.558593-3.121094 2.894531-5.597657 5.976562-6.359375 1.644531-.398438 3.261719-.617188 4.824219-.808594.652344-.085938 1.292969-.160156 1.910156-.269531.96875-.179688 3.320313-.617188 4.832032-1.21875 3.503906-1.398438 7.496093-.175781 9.601562 2.921875l15.175781 22.328125 39.214844-27.449219-15.128906-22.800781c-2.0625-3.039063-1.800781-7.09375.65625-9.832031.746093-.832032 1.304687-1.792969 1.914062-2.75l1.199219-1.855469c.582031-.808594 1.382812-2.035157 2.464844-4.425781 1.503906-3.359376 5.0625-5.230469 8.757812-4.59375l26.046875 4.832031 8.746094-47.261719c-.074219-.816406-.417969-1.304688-.570313-1.335938l-26.046874-4.832031c-3.109376-.578125-5.589844-2.9375-6.320313-6.023437-.398437-1.65625-.597656-3.273438-.789063-4.824219-.066406-.570313-.128906-1.136719-.210937-1.671875-.214844-.824219-.40625-1.6875-.582031-2.578125-.191406-.910156-.351563-1.863281-.679688-2.71875-1.351562-3.433594-.167968-7.335937 2.839844-9.464844l21.96875-15.4375-26.761719-40.203125-22.054687 15.417969c-3.097656 2.167969-7.273438 1.886719-10.042969-.679687-.8125-.753907-1.75-1.320313-2.6875-1.9375l-1.832031-1.214844c-.800782-.59375-1.992188-1.410156-4.304688-2.472656-3.308594-1.511719-5.175781-5.097657-4.527344-8.679688l4.769532-26.488281-46.90625-9.167969-5.070313 26.816406c-.558593 3.105469-2.886719 5.589844-5.945312 6.351563-1.65625.40625-3.261719.625-4.824219.816406-.542969.070313-1.078125.136719-1.589844.214844-.824218.21875-1.6875.417969-2.558594.601562-.875.183594-1.785156.34375-2.585937.664063-3.488281 1.449218-7.503906.214844-9.632813-2.90625l-15.175781-22.328125-39.214843 27.441406 15.128906 22.800781c2.070312 3.046875 1.796875 7.113282-.671875 9.847656-.738281.824219-1.289063 1.769532-1.890625 2.71875l-1.207032 1.875c-.582031.804688-1.382812 2.03125-2.464843 4.421876-1.503907 3.359374-5.039063 5.230468-8.757813 4.59375l-26.050781-4.832032-8.871094 48 25.832031 5.261719c3.105469.578125 5.578126 2.929687 6.320313 6 .398437 1.671875.609375 3.296875.800781 4.863281.078125.671875.160156 1.328125.261719 1.960938.167969.953125.59375 3.390625 1.210937 4.984375 1.335938 3.398437.191407 7.265625-2.769531 9.398437l-21.511719 15.523438 26.886719 40.277344 22.074219-15.390626c1.382812-.960937 2.992188-1.441406 4.589844-1.441406zm0 0" fill="currentColor" data-original="#010101"></path></g>
  </symbol>






</svg>
