<svg xmlns="http://www.w3.org/2000/svg" width="86" height="86" viewBox="0 0 86 86">
  <g id="Group_3319" data-name="Group 3319" transform="translate(-2228.492 -7354.947)">
    <g id="Group_3318" data-name="Group 3318">
      <g id="Group_2286" data-name="Group 2286" transform="translate(-1.508 -4.053)">
        <path id="Path_6411" data-name="Path 6411" d="M38,0A38,38,0,1,1,0,38,38,38,0,0,1,38,0Z" transform="translate(2235 7364)" fill="#ff0e0e"/>
        <g id="Path_6409" data-name="Path 6409" transform="translate(2230 7359)" fill="none">
          <path d="M43,0A43,43,0,1,1,0,43,43,43,0,0,1,43,0Z" stroke="none"/>
          <path d="M 43 1 C 37.3296012878418 1 31.82934188842773 2.110328674316406 26.65201187133789 4.300155639648438 C 21.65080261230469 6.415496826171875 17.15904998779297 9.443984985351562 13.30152130126953 13.30152130126953 C 9.443984985351562 17.15904998779297 6.415496826171875 21.65080261230469 4.300155639648438 26.65201187133789 C 2.110328674316406 31.82934188842773 1 37.3296012878418 1 43 C 1 48.6703987121582 2.110328674316406 54.17065811157227 4.300155639648438 59.34798812866211 C 6.415496826171875 64.34919738769531 9.443984985351562 68.84095764160156 13.30152130126953 72.698486328125 C 17.15904998779297 76.55601501464844 21.65080261230469 79.58450317382812 26.65201187133789 81.69984436035156 C 31.82934188842773 83.88967132568359 37.3296012878418 85 43 85 C 46.11154174804688 85 49.217529296875 84.65856170654297 52.23168182373047 83.98517608642578 C 55.15565872192383 83.33193206787109 58.01476287841797 82.36191558837891 60.72957611083984 81.10208129882812 C 63.38924789428711 79.86783599853516 65.92164611816406 78.35055541992188 68.25644683837891 76.59237670898438 C 70.57030487060547 74.8499755859375 72.695068359375 72.86740875244141 74.57183837890625 70.69961547851562 C 77.89548492431641 66.86196899414062 80.47898864746094 62.57015228271484 82.25060272216797 57.94337463378906 C 84.07496643066406 53.17881011962891 85 48.15113067626953 85 43 C 85 37.3296012878418 83.88967132568359 31.82934188842773 81.69984436035156 26.65201187133789 C 79.58450317382812 21.65080261230469 76.55601501464844 17.15904998779297 72.698486328125 13.30152130126953 C 68.84095764160156 9.443984985351562 64.34919738769531 6.415496826171875 59.34798812866211 4.300155639648438 C 54.17065811157227 2.110328674316406 48.6703987121582 1 43 1 M 43 0 C 66.74824523925781 0 86 19.25175476074219 86 43 C 86 53.75795364379883 82.04936218261719 63.59318542480469 75.32775115966797 71.35427856445312 C 67.63519287109375 80.23969268798828 55.99028015136719 86 43 86 C 19.25175476074219 86 0 66.74824523925781 0 43 C 0 19.25175476074219 19.25175476074219 0 43 0 Z" stroke="none" fill="#ff0e0e"/>
        </g>
      </g>
    </g>
    <g id="Group_3317" data-name="Group 3317" transform="translate(5899.101 560.074) rotate(45)">
      <g id="Path_6410" data-name="Path 6410" transform="translate(2251 7401.714) rotate(-90)" fill="#fff" stroke-linecap="round">
        <path d="M 1.5 36.5 C 1.498700022697449 36.5 1.498110055923462 36.49991989135742 1.49810004234314 36.49991989135742 L 1.5 29.42382049560547 L 1.5 1.5 L 1.5 36.5 Z" stroke="none"/>
        <path d="M 1.5 0 C 2.328429937362671 0 3 0.67156982421875 3 1.5 L 3 36.5 C 3 37.32843017578125 2.328429937362671 38 1.5 38 C 0.6715700626373291 38 0 37.32843017578125 0 36.5 L 0 1.5 C 0 0.67156982421875 0.6715700626373291 0 1.5 0 Z" stroke="none" fill="#fff"/>
      </g>
      <g id="Path_6412" data-name="Path 6412" transform="translate(2268.5 7381.237)" fill="#fff" stroke-linecap="round">
        <path d="M 1.500773668289185 36.45371246337891 C 1.499363541603088 36.45370864868164 1.49872350692749 36.45361328125 1.498713731765747 36.45361328125 L 1.50062370300293 29.38792419433594 L 1.500033736228943 1.498143434524536 L 1.500773668289185 36.45371246337891 Z" stroke="none"/>
        <path d="M 1.499966740608215 3.4332275390625e-05 C 1.500017285346985 3.4332275390625e-05 1.499953150749207 3.4332275390625e-05 1.500003814697266 3.4332275390625e-05 C 2.328423738479614 5.340576171875e-05 3.000013828277588 0.6708145141601562 3.000033855438232 1.498233795166016 L 3.000773668289185 36.45557403564453 C 3.000793695449829 37.28299331665039 2.330578804016113 37.95373153686523 1.500803709030151 37.95371246337891 C 0.6723837852478027 37.95369338989258 0.0007936954498291016 37.28292465209961 0.0007736682891845703 36.45551300048828 L 3.385543823242188e-05 1.498172760009766 C 1.382827758789062e-05 0.6708030700683594 0.6716063022613525 3.4332275390625e-05 1.499966740608215 3.4332275390625e-05 Z" stroke="none" fill="#fff"/>
      </g>
    </g>
  </g>
</svg>
